<?xml version="1.0" encoding="utf-8"?>
<COLLADA xmlns="http://www.collada.org/2005/11/COLLADASchema" version="1.4.1" xmlns:xsi="http://www.w3.org/2001/XMLSchema-instance">
  <asset>
    <contributor>
      <author>Blender User</author>
      <authoring_tool>Blender 4.5.7 LTS commit date:2026-02-16, commit time:13:34, hash:a9874eeece8d</authoring_tool>
    </contributor>
    <created>2026-03-12T16:13:54</created>
    <modified>2026-03-12T16:13:54</modified>
    <unit name="meter" meter="1"/>
    <up_axis>Z_UP</up_axis>
  </asset>
  <library_effects>
    <effect id="Material-effect">
      <profile_COMMON>
        <newparam sid="SCSP1white_png-surface">
          <surface type="2D">
            <init_from>SCSP1white_png</init_from>
          </surface>
        </newparam>
        <newparam sid="SCSP1white_png-sampler">
          <sampler2D>
            <source>SCSP1white_png-surface</source>
          </sampler2D>
        </newparam>
        <technique sid="common">
          <lambert>
            <emission>
              <color sid="emission">0 0 0 1</color>
            </emission>
            <diffuse>
              <texture texture="SCSP1white_png-sampler" texcoord="UVMap"/>
            </diffuse>
            <index_of_refraction>
              <float sid="ior">1.45</float>
            </index_of_refraction>
          </lambert>
        </technique>
      </profile_COMMON>
    </effect>
    <effect id="Material_001-effect">
      <profile_COMMON>
        <technique sid="common">
          <lambert>
            <emission>
              <color sid="emission">0 0 0 1</color>
            </emission>
            <diffuse>
              <color sid="diffuse">0.2082199 0.2082199 0.2082199 1</color>
            </diffuse>
            <index_of_refraction>
              <float sid="ior">1.5</float>
            </index_of_refraction>
          </lambert>
        </technique>
      </profile_COMMON>
    </effect>
  </library_effects>
  <library_images>
    <image id="SCSP1white_png" name="SCSP1white_png">
      <init_from>../models/dc_single_gate/materials/textures/SCSP1white.png</init_from>
    </image>
  </library_images>
  <library_materials>
    <material id="Material-material" name="Material">
      <instance_effect url="#Material-effect"/>
    </material>
    <material id="Material_001-material" name="Material.001">
      <instance_effect url="#Material_001-effect"/>
    </material>
  </library_materials>
  <library_geometries>
    <geometry id="Cube-mesh" name="Cube">
      <mesh>
        <source id="Cube-mesh-positions">
          <float_array id="Cube-mesh-positions-array" count="912">-1 -0.7142857 -0.7142857 -1 0.7142857 0.7142857 -1 -0.7142857 0.7142857 -1 0.7142857 -0.7142857 1 0.7142857 -0.7142857 1 -0.7142857 0.7142857 1 0.7142857 0.7142857 1 -0.7142857 -0.7142857 1 0.9885691 0.9885691 0.9885691 1 0.9885691 0.9885691 0.9885691 1 0.9996107 0.9915266 0.988569 0.9984679 0.9942854 0.988569 0.9966519 0.9966519 0.988569 0.9996107 0.988569 0.9915266 0.9991473 0.9916447 0.9916196 0.9979915 0.9943029 0.9915698 0.9963837 0.9963765 0.9915084 0.998468 0.988569 0.9942854 0.9979841 0.9915871 0.994306 0.9970154 0.9940167 0.994014 0.9957656 0.9957648 0.9937745 0.9951687 0.9951687 0.9951687 0.988569 0.9996107 0.9915266 0.988569 0.9984679 0.9942854 0.988569 0.9966519 0.9966519 0.9915266 0.9996107 0.988569 0.9916196 0.9991473 0.9916447 0.9915698 0.9979915 0.9943029 0.9915084 0.9963837 0.9963765 0.9942854 0.998468 0.988569 0.994306 0.9979841 0.9915871 0.994014 0.9970154 0.9940167 0.9937745 0.9957656 0.9957648 0.9915266 0.988569 0.9996107 0.9942854 0.988569 0.9984679 0.9966519 0.988569 0.9966519 0.988569 0.9915266 0.9996107 0.9916447 0.9916196 0.9991473 0.9943029 0.9915698 0.9979915 0.9963765 0.9915084 0.9963837 0.988569 0.9942854 0.998468 0.9915871 0.994306 0.9979841 0.9940167 0.994014 0.9970154 0.9957648 0.9937745 0.9957656 0.9885691 1 -0.9885691 1 0.9885691 -0.9885691 0.9885691 0.9885691 -1 0.9915266 0.9996107 -0.988569 0.9942854 0.9984679 -0.988569 0.9966519 0.9966519 -0.988569 0.988569 0.9996107 -0.9915266 0.9916447 0.9991473 -0.9916196 0.9943029 0.9979915 -0.9915698 0.9963765 0.9963837 -0.9915084 0.988569 0.998468 -0.9942854 0.9915871 0.9979841 -0.994306 0.9940167 0.9970154 -0.994014 0.9957648 0.9957656 -0.9937745 0.9951687 0.9951687 -0.9951687 0.9996107 0.988569 -0.9915266 0.9984679 0.988569 -0.9942854 0.9966519 0.988569 -0.9966519 0.9996107 0.9915266 -0.988569 0.9991473 0.9916196 -0.9916447 0.9979915 0.9915698 -0.9943029 0.9963837 0.9915084 -0.9963765 0.998468 0.9942854 -0.988569 0.9979841 0.994306 -0.9915871 0.9970154 0.994014 -0.9940167 0.9957656 0.9937745 -0.9957648 0.988569 0.9915266 -0.9996107 0.988569 0.9942854 -0.9984679 0.988569 0.9966519 -0.9966519 0.9915266 0.988569 -0.9996107 0.9916196 0.9916447 -0.9991473 0.9915698 0.9943029 -0.9979915 0.9915084 0.9963765 -0.9963837 0.9942854 0.988569 -0.998468 0.994306 0.9915871 -0.9979841 0.994014 0.9940167 -0.9970154 0.9937745 0.9957648 -0.9957656 1 -0.9885691 0.9885691 0.9885691 -0.9885691 1 0.9885691 -1 0.9885691 0.9996107 -0.988569 0.9915266 0.9984679 -0.988569 0.9942854 0.9966519 -0.988569 0.9966519 0.9996107 -0.9915266 0.988569 0.9991473 -0.9916196 0.9916447 0.9979915 -0.9915698 0.9943029 0.9963837 -0.9915084 0.9963765 0.998468 -0.9942854 0.988569 0.9979841 -0.994306 0.9915871 0.9970154 -0.994014 0.9940167 0.9957656 -0.9937745 0.9957648 0.9951687 -0.9951687 0.9951687 0.988569 -0.9915266 0.9996107 0.988569 -0.9942854 0.9984679 0.988569 -0.9966519 0.9966519 0.9915266 -0.988569 0.9996107 0.9916196 -0.9916447 0.9991473 0.9915698 -0.9943029 0.9979915 0.9915084 -0.9963765 0.9963837 0.9942854 -0.988569 0.998468 0.994306 -0.9915871 0.9979841 0.994014 -0.9940167 0.9970154 0.9937745 -0.9957648 0.9957656 0.9915266 -0.9996107 0.988569 0.9942854 -0.9984679 0.988569 0.9966519 -0.9966519 0.988569 0.988569 -0.9996107 0.9915266 0.9916447 -0.9991473 0.9916196 0.9943029 -0.9979915 0.9915698 0.9963765 -0.9963837 0.9915084 0.988569 -0.998468 0.9942854 0.9915871 -0.9979841 0.994306 0.9940167 -0.9970154 0.994014 0.9957648 -0.9957656 0.9937745 0.9885691 -0.9885691 -1 1 -0.9885691 -0.9885691 0.9885691 -1 -0.9885691 0.9915266 -0.988569 -0.9996107 0.9942854 -0.988569 -0.9984679 0.9966519 -0.988569 -0.9966519 0.988569 -0.9915266 -0.9996107 0.9916447 -0.9916196 -0.9991473 0.9943029 -0.9915698 -0.9979915 0.9963765 -0.9915084 -0.9963837 0.988569 -0.9942854 -0.998468 0.9915871 -0.994306 -0.9979841 0.9940167 -0.994014 -0.9970154 0.9957648 -0.9937745 -0.9957656 0.9951687 -0.9951687 -0.9951687 0.9996107 -0.9915266 -0.988569 0.9984679 -0.9942854 -0.988569 0.9966519 -0.9966519 -0.988569 0.9996107 -0.988569 -0.9915266 0.9991473 -0.9916447 -0.9916196 0.9979915 -0.9943029 -0.9915698 0.9963837 -0.9963765 -0.9915084 0.998468 -0.988569 -0.9942854 0.9979841 -0.9915871 -0.994306 0.9970154 -0.9940167 -0.994014 0.9957656 -0.9957648 -0.9937745 0.988569 -0.9996107 -0.9915266 0.988569 -0.9984679 -0.9942854 0.988569 -0.9966519 -0.9966519 0.9915266 -0.9996107 -0.988569 0.9916196 -0.9991473 -0.9916447 0.9915698 -0.9979915 -0.9943029 0.9915084 -0.9963837 -0.9963765 0.9942854 -0.998468 -0.988569 0.994306 -0.9979841 -0.9915871 0.994014 -0.9970154 -0.9940167 0.9937745 -0.9957656 -0.9957648 -0.9885691 1 0.9885691 -1 0.9885691 0.9885691 -0.9885691 0.9885691 1 -0.9915266 0.9996107 0.988569 -0.9942854 0.9984679 0.988569 -0.9966519 0.9966519 0.988569 -0.988569 0.9996107 0.9915266 -0.9916447 0.9991473 0.9916196 -0.9943029 0.9979915 0.9915698 -0.9963765 0.9963837 0.9915084 -0.988569 0.998468 0.9942854 -0.9915871 0.9979841 0.994306 -0.9940167 0.9970154 0.994014 -0.9957648 0.9957656 0.9937745 -0.9951687 0.9951687 0.9951687 -0.9996107 0.988569 0.9915266 -0.9984679 0.988569 0.9942854 -0.9966519 0.988569 0.9966519 -0.9996107 0.9915266 0.988569 -0.9991473 0.9916196 0.9916447 -0.9979915 0.9915698 0.9943029 -0.9963837 0.9915084 0.9963765 -0.998468 0.9942854 0.988569 -0.9979841 0.994306 0.9915871 -0.9970154 0.994014 0.9940167 -0.9957656 0.9937745 0.9957648 -0.988569 0.9915266 0.9996107 -0.988569 0.9942854 0.9984679 -0.988569 0.9966519 0.9966519 -0.9915266 0.988569 0.9996107 -0.9916196 0.9916447 0.9991473 -0.9915698 0.9943029 0.9979915 -0.9915084 0.9963765 0.9963837 -0.9942854 0.988569 0.998468 -0.994306 0.9915871 0.9979841 -0.994014 0.9940167 0.9970154 -0.9937745 0.9957648 0.9957656 -0.9885691 1 -0.9885691 -0.9885691 0.9885691 -1 -1 0.9885691 -0.9885691 -0.988569 0.9996107 -0.9915266 -0.988569 0.9984679 -0.9942854 -0.988569 0.9966519 -0.9966519 -0.9915266 0.9996107 -0.988569 -0.9916196 0.9991473 -0.9916447 -0.9915698 0.9979915 -0.9943029 -0.9915084 0.9963837 -0.9963765 -0.9942854 0.998468 -0.988569 -0.994306 0.9979841 -0.9915871 -0.994014 0.9970154 -0.9940167 -0.9937745 0.9957656 -0.9957648 -0.9951687 0.9951687 -0.9951687 -0.9915266 0.988569 -0.9996107 -0.9942854 0.988569 -0.9984679 -0.9966519 0.988569 -0.9966519 -0.988569 0.9915266 -0.9996107 -0.9916447 0.9916196 -0.9991473 -0.9943029 0.9915698 -0.9979915 -0.9963765 0.9915084 -0.9963837 -0.988569 0.9942854 -0.998468 -0.9915871 0.994306 -0.9979841 -0.9940167 0.994014 -0.9970154 -0.9957648 0.9937745 -0.9957656 -0.9996107 0.9915266 -0.988569 -0.9984679 0.9942854 -0.988569 -0.9966519 0.9966519 -0.988569 -0.9996107 0.988569 -0.9915266 -0.9991473 0.9916447 -0.9916196 -0.9979915 0.9943029 -0.9915698 -0.9963837 0.9963765 -0.9915084 -0.998468 0.988569 -0.9942854 -0.9979841 0.9915871 -0.994306 -0.9970154 0.9940167 -0.994014 -0.9957656 0.9957648 -0.9937745 -1 -0.9885691 0.9885691 -0.9885691 -1 0.9885691 -0.9885691 -0.9885691 1 -0.9995635 -0.9915139 0.9885692 -0.9984256 -0.994261 0.9885691 -0.9966519 -0.9966519 0.9885691 -0.9995635 -0.9885691 0.9915139 -0.9987164 -0.9914698 0.9914455 -0.9977677 -0.9941185 0.9914146 -0.9963105 -0.9963032 0.9913895 -0.9984256 -0.9885691 0.994261 -0.9977157 -0.9914174 0.9940944 -0.9969519 -0.9939019 0.9938992 -0.995813 -0.9958121 0.9937425 -0.9952198 -0.9952198 0.9952198 -0.9885692 -0.9995635 0.9915139 -0.9885691 -0.9984256 0.994261 -0.9885691 -0.9966519 0.9966519 -0.9915139 -0.9995635 0.9885691 -0.9914455 -0.9987164 0.9914698 -0.9914146 -0.9977677 0.9941185 -0.9913895 -0.9963105 0.9963032 -0.994261 -0.9984256 0.9885691 -0.9940944 -0.9977157 0.9914174 -0.9938992 -0.9969519 0.9939019 -0.9937425 -0.995813 0.9958121 -0.9915139 -0.9885692 0.9995635 -0.994261 -0.9885691 0.9984256 -0.9966519 -0.9885691 0.9966519 -0.9885691 -0.9915139 0.9995635 -0.9914698 -0.9914455 0.9987164 -0.9941185 -0.9914146 0.9977677 -0.9963032 -0.9913895 0.9963105 -0.9885691 -0.994261 0.9984256 -0.9914174 -0.9940944 0.9977157 -0.9939019 -0.9938992 0.9969519 -0.9958121 -0.9937425 0.995813 -0.9885691 -0.9885691 -1 -0.9885691 -1 -0.9885691 -1 -0.9885691 -0.9885691 -0.988569 -0.9915266 -0.9996107 -0.988569 -0.9942854 -0.9984679 -0.988569 -0.9966519 -0.9966519 -0.9915266 -0.988569 -0.9996107 -0.9916196 -0.9916447 -0.9991473 -0.9915698 -0.9943029 -0.9979915 -0.9915084 -0.9963765 -0.9963837 -0.9942854 -0.988569 -0.998468 -0.994306 -0.9915871 -0.9979841 -0.994014 -0.9940167 -0.9970154 -0.9937745 -0.9957648 -0.9957656 -0.9951687 -0.9951687 -0.9951687 -0.9915266 -0.9996107 -0.988569 -0.9942854 -0.9984679 -0.988569 -0.9966519 -0.9966519 -0.988569 -0.988569 -0.9996107 -0.9915266 -0.9916447 -0.9991473 -0.9916196 -0.9943029 -0.9979915 -0.9915698 -0.9963765 -0.9963837 -0.9915084 -0.988569 -0.998468 -0.9942854 -0.9915871 -0.9979841 -0.994306 -0.9940167 -0.9970154 -0.994014 -0.9957648 -0.9957656 -0.9937745 -0.9996107 -0.988569 -0.9915266 -0.9984679 -0.988569 -0.9942854 -0.9966519 -0.988569 -0.9966519 -0.9996107 -0.9915266 -0.988569 -0.9991473 -0.9916196 -0.9916447 -0.9979915 -0.9915698 -0.9943029 -0.9963837 -0.9915084 -0.9963765 -0.998468 -0.9942854 -0.988569 -0.9979841 -0.994306 -0.9915871 -0.9970154 -0.994014 -0.9940167 -0.9957656 -0.9937745 -0.9957648</float_array>
          <technique_common>
            <accessor source="#Cube-mesh-positions-array" count="304" stride="3">
              <param name="X" type="float"/>
              <param name="Y" type="float"/>
              <param name="Z" type="float"/>
            </accessor>
          </technique_common>
        </source>
        <source id="Cube-mesh-normals">
          <float_array id="Cube-mesh-normals-array" count="1824">0 -1 0 0 1 0 0 0 1 0 0 -1 0.9831116 0.1294053 0.1294053 0.9166812 0.3797159 0.1245451 0.7874497 0.6042873 0.1214902 0.9164479 0.1266003 0.3795995 0.8475384 0.3755358 0.3750356 0.7346336 0.5746455 0.3606883 0.7873799 0.1221092 0.6042535 0.7325015 0.3560097 0.5802572 0.6618808 0.515841 0.5438951 0.1294053 0.9831116 0.1294053 0.1245451 0.9166812 0.3797159 0.1214902 0.7874497 0.6042873 0.3795995 0.9164479 0.1266003 0.3750356 0.8475384 0.3755358 0.3606883 0.7346336 0.5746455 0.6042535 0.7873799 0.1221092 0.5802573 0.7325016 0.3560098 0.5438951 0.6618809 0.515841 0.1294053 0.1294053 0.9831116 0.3797159 0.1245451 0.9166812 0.6042873 0.1214902 0.7874497 0.1266003 0.3795995 0.9164479 0.3755358 0.3750356 0.8475384 0.5746455 0.3606883 0.7346336 0.1221092 0.6042535 0.7873799 0.3560097 0.5802572 0.7325015 0.515841 0.5438951 0.6618809 0.1294053 0.9831116 -0.1294053 0.3797159 0.9166812 -0.1245451 0.6042873 0.7874497 -0.1214902 0.1266003 0.9164479 -0.3795995 0.3755358 0.8475384 -0.3750356 0.5746455 0.7346336 -0.3606883 0.1221092 0.7873799 -0.6042535 0.3560097 0.7325015 -0.5802572 0.515841 0.6618808 -0.5438951 0.9831116 0.1294053 -0.1294053 0.9166812 0.1245451 -0.3797159 0.7874497 0.1214902 -0.6042873 0.9164479 0.3795995 -0.1266003 0.8475384 0.3750356 -0.3755358 0.7346336 0.3606883 -0.5746455 0.7873799 0.6042535 -0.1221092 0.7325016 0.5802573 -0.3560098 0.6618809 0.5438951 -0.515841 0.1294053 0.1294053 -0.9831116 0.1245451 0.3797159 -0.9166812 0.1214902 0.6042873 -0.7874497 0.3795995 0.1266003 -0.9164479 0.3750356 0.3755358 -0.8475384 0.3606883 0.5746455 -0.7346336 0.6042535 0.1221092 -0.7873799 0.5802572 0.3560097 -0.7325015 0.5438951 0.515841 -0.6618809 0.9831116 -0.1294053 0.1294053 0.9166812 -0.1245451 0.3797159 0.7874497 -0.1214902 0.6042873 0.9164479 -0.3795995 0.1266003 0.8475384 -0.3750356 0.3755358 0.7346336 -0.3606883 0.5746455 0.7873799 -0.6042535 0.1221092 0.7325016 -0.5802573 0.3560098 0.6618809 -0.5438951 0.515841 0.1294053 -0.1294053 0.9831116 0.1245451 -0.3797159 0.9166812 0.1214902 -0.6042873 0.7874497 0.3795995 -0.1266003 0.9164479 0.3750356 -0.3755358 0.8475384 0.3606883 -0.5746455 0.7346336 0.6042535 -0.1221092 0.7873799 0.5802572 -0.3560097 0.7325015 0.5438951 -0.515841 0.6618809 0.1294053 -0.9831116 0.1294053 0.3797159 -0.9166812 0.1245451 0.6042873 -0.7874497 0.1214902 0.1266003 -0.9164479 0.3795995 0.3755358 -0.8475384 0.3750356 0.5746455 -0.7346336 0.3606883 0.1221092 -0.7873799 0.6042535 0.3560097 -0.7325015 0.5802572 0.515841 -0.6618808 0.5438951 0.1294053 -0.1294053 -0.9831116 0.3797159 -0.1245451 -0.9166812 0.6042873 -0.1214902 -0.7874497 0.1266003 -0.3795995 -0.9164479 0.3755358 -0.3750356 -0.8475384 0.5746455 -0.3606883 -0.7346336 0.1221092 -0.6042535 -0.7873799 0.3560097 -0.5802572 -0.7325015 0.515841 -0.5438951 -0.6618809 0.9831116 -0.1294053 -0.1294053 0.9166812 -0.3797159 -0.1245451 0.7874497 -0.6042873 -0.1214902 0.9164479 -0.1266003 -0.3795995 0.8475384 -0.3755358 -0.3750356 0.7346336 -0.5746455 -0.3606883 0.7873799 -0.1221092 -0.6042535 0.7325015 -0.3560097 -0.5802572 0.6618808 -0.515841 -0.5438951 0.1294053 -0.9831116 -0.1294053 0.1245451 -0.9166812 -0.3797159 0.1214902 -0.7874497 -0.6042873 0.3795995 -0.9164479 -0.1266003 0.3750356 -0.8475384 -0.3755358 0.3606883 -0.7346336 -0.5746455 0.6042535 -0.7873799 -0.1221092 0.5802573 -0.7325016 -0.3560098 0.5438951 -0.6618809 -0.515841 -0.1294053 0.9831116 0.1294053 -0.3797159 0.9166812 0.1245451 -0.6042873 0.7874497 0.1214902 -0.1266003 0.9164479 0.3795995 -0.3755358 0.8475384 0.3750356 -0.5746455 0.7346336 0.3606883 -0.1221092 0.7873799 0.6042535 -0.3560097 0.7325015 0.5802572 -0.515841 0.6618808 0.5438951 -0.9831116 0.1294053 0.1294053 -0.9166812 0.1245451 0.3797159 -0.7874497 0.1214902 0.6042873 -0.9164479 0.3795995 0.1266003 -0.8475384 0.3750356 0.3755358 -0.7346336 0.3606883 0.5746455 -0.7873799 0.6042535 0.1221092 -0.7325016 0.5802573 0.3560098 -0.6618809 0.5438951 0.515841 -0.1294053 0.1294053 0.9831116 -0.1245451 0.3797159 0.9166812 -0.1214902 0.6042873 0.7874497 -0.3795995 0.1266003 0.9164479 -0.3750356 0.3755358 0.8475384 -0.3606883 0.5746455 0.7346336 -0.6042535 0.1221092 0.7873799 -0.5802572 0.3560097 0.7325015 -0.5438951 0.515841 0.6618809 -0.1294053 0.9831116 -0.1294053 -0.1245451 0.9166812 -0.3797159 -0.1214902 0.7874497 -0.6042873 -0.3795995 0.9164479 -0.1266003 -0.3750356 0.8475384 -0.3755358 -0.3606883 0.7346336 -0.5746455 -0.6042535 0.7873799 -0.1221092 -0.5802573 0.7325016 -0.3560098 -0.5438951 0.6618809 -0.515841 -0.1294053 0.1294053 -0.9831116 -0.3797159 0.1245451 -0.9166812 -0.6042873 0.1214902 -0.7874497 -0.1266003 0.3795995 -0.9164479 -0.3755358 0.3750356 -0.8475384 -0.5746455 0.3606883 -0.7346336 -0.1221092 0.6042535 -0.7873799 -0.3560097 0.5802572 -0.7325015 -0.515841 0.5438951 -0.6618809 -0.9831116 0.1294053 -0.1294053 -0.9166812 0.3797159 -0.1245451 -0.7874497 0.6042873 -0.1214902 -0.9164479 0.1266003 -0.3795995 -0.8475384 0.3755358 -0.3750356 -0.7346336 0.5746455 -0.3606883 -0.7873799 0.1221092 -0.6042535 -0.7325015 0.3560097 -0.5802572 -0.6618808 0.515841 -0.5438951 -0.9787262 -0.1450647 0.1450904 -0.8901267 -0.3687224 0.2678023 -0.7851027 -0.5824317 0.2106823 -0.8899434 -0.2685609 0.3686133 -0.8839775 -0.3205937 0.3402988 -0.8056368 -0.5056771 0.3086096 -0.781828 -0.2287841 0.5800024 -0.8083444 -0.2784085 0.5187177 -0.732832 -0.485319 0.4768885 -0.1450904 -0.9787262 0.1450647 -0.2678023 -0.8901268 0.3687224 -0.2106823 -0.7851027 0.5824317 -0.3686133 -0.8899434 0.2685609 -0.3402988 -0.8839775 0.3205937 -0.3086096 -0.8056369 0.5056772 -0.5800024 -0.781828 0.2287841 -0.5187177 -0.8083444 0.2784085 -0.4768885 -0.732832 0.485319 -0.1450647 -0.1450904 0.9787262 -0.3687224 -0.2678023 0.8901268 -0.5824317 -0.2106823 0.7851027 -0.2685609 -0.3686133 0.8899434 -0.3205937 -0.3402988 0.8839775 -0.5056772 -0.3086096 0.8056369 -0.2287841 -0.5800024 0.781828 -0.2784085 -0.5187177 0.8083444 -0.485319 -0.4768885 0.732832 -0.1294053 -0.1294053 -0.9831116 -0.1245451 -0.3797159 -0.9166812 -0.1214902 -0.6042873 -0.7874497 -0.3795995 -0.1266003 -0.9164479 -0.3750356 -0.3755358 -0.8475384 -0.3606883 -0.5746455 -0.7346336 -0.6042535 -0.1221092 -0.7873799 -0.5802572 -0.3560097 -0.7325015 -0.5438951 -0.515841 -0.6618809 -0.1294053 -0.9831116 -0.1294053 -0.3797159 -0.9166812 -0.1245451 -0.6042873 -0.7874497 -0.1214902 -0.1266003 -0.9164479 -0.3795995 -0.3755358 -0.8475384 -0.3750356 -0.5746455 -0.7346336 -0.3606883 -0.1221092 -0.7873799 -0.6042535 -0.3560097 -0.7325015 -0.5802572 -0.515841 -0.6618808 -0.5438951 -0.9831116 -0.1294053 -0.1294053 -0.9166812 -0.1245451 -0.3797159 -0.7874497 -0.1214902 -0.6042873 -0.9164479 -0.3795995 -0.1266003 -0.8475384 -0.3750356 -0.3755358 -0.7346336 -0.3606883 -0.5746455 -0.7873799 -0.6042535 -0.1221092 -0.7325016 -0.5802573 -0.3560098 -0.6618809 -0.5438951 -0.515841 0.1305 0 0.9914483 0.3826956 0 0.9238745 0.6087968 0 0.7933262 0.7933166 0 0.6088094 0.9238816 0 0.3826785 0.9914483 0 0.1305 0 0.9914483 0.1305 0 0.9238745 0.3826956 0 0.7933262 0.6087968 0 0.6088094 0.7933166 0 0.3826785 0.9238816 0 0.1305 0.9914483 -0.9914483 0 0.1305 -0.9238745 -2.4544e-5 0.3826956 -0.7933262 -2.45055e-5 0.6087968 -0.6088094 0 0.7933166 -0.3826785 -2.45329e-5 0.9238816 -0.1305 0 0.9914483 0 -0.1305 0.9914483 -2.4544e-5 -0.3826956 0.9238745 -2.45055e-5 -0.6087968 0.7933262 0 -0.7933166 0.6088094 -2.45329e-5 -0.9238816 0.3826785 0 -0.9914483 0.1305 0 -0.9914483 -0.1305 0 -0.9238745 -0.3826956 0 -0.7933262 -0.6087968 0 -0.6088094 -0.7933166 0 -0.3826785 -0.9238816 0 -0.1305 -0.9914483 0.1305 -0.9914483 0 0.3826956 -0.9238745 0 0.6087968 -0.7933262 0 0.7933166 -0.6088094 0 0.9238816 -0.3826785 0 0.9914483 -0.1305 0 -0.9891931 -0.146619 2.45554e-5 -0.9238744 -0.3826959 2.45046e-5 -0.8031292 -0.5958048 2.4579e-5 -0.5958048 -0.8031292 0 -0.3826717 -0.9238844 2.4505e-5 -0.1466415 -0.9891898 2.45897e-5 -0.1305 0.9914483 0 -0.3826956 0.9238745 0 -0.6087968 0.7933262 0 -0.7933166 0.6088094 0 -0.9238816 0.3826785 0 -0.9914483 0.1305 0 -0.1305 0 -0.9914483 -0.3826956 0 -0.9238745 -0.6087968 0 -0.7933262 -0.7933166 0 -0.6088094 -0.9238816 0 -0.3826785 -0.9914483 0 -0.1305 0 0.1305 -0.9914483 0 0.3826956 -0.9238745 0 0.6087968 -0.7933262 0 0.7933166 -0.6088094 0 0.9238816 -0.3826785 0 0.9914483 -0.1305 0.9914483 0 -0.1305 0.9238745 0 -0.3826956 0.7933262 0 -0.6087968 0.6088094 0 -0.7933166 0.3826785 0 -0.9238816 0.1305 0 -0.9914483 0.9914483 0.1305 0 0.9238745 0.3826956 0 0.7933262 0.6087968 0 0.6088094 0.7933166 0 0.3826785 0.9238816 0 0.1305 0.9914483 0 1 0 0 0 0 1 0 1 0 0 0 -1 1 0 0 0 -1 0 -1 0 0 -1 0 0 0 -1 0 0 1 0 0 0 1 0 0 -1 0.979274 0.1432172 0.1432172 0.9068422 0.3969518 0.1416562 0.7818717 0.610054 0.1284943 0.9071549 0.1427365 0.3958487 0.8421576 0.3815739 0.3810143 0.7332543 0.5791028 0.3563399 0.7819209 0.1289103 0.6099032 0.734327 0.3618194 0.5743262 0.6618586 0.5438765 0.5158891 0.1432172 0.979274 0.1432172 0.1416562 0.9068422 0.3969518 0.1284943 0.7818717 0.610054 0.3958487 0.9071549 0.1427365 0.3810143 0.8421576 0.3815739 0.3563399 0.7332543 0.5791028 0.6099032 0.7819209 0.1289103 0.5743262 0.734327 0.3618194 0.5158891 0.6618586 0.5438765 0.1432172 0.1432172 0.979274 0.3969518 0.1416562 0.9068422 0.610054 0.1284943 0.7818717 0.1427365 0.3958487 0.9071549 0.3815739 0.3810143 0.8421576 0.5791028 0.3563399 0.7332543 0.1289103 0.6099032 0.7819209 0.3618194 0.5743262 0.734327 0.5438765 0.5158891 0.6618586 0.1432172 0.979274 -0.1432172 0.3969518 0.9068422 -0.1416562 0.610054 0.7818717 -0.1284943 0.1427365 0.9071549 -0.3958487 0.3815739 0.8421576 -0.3810143 0.5791028 0.7332543 -0.3563399 0.1289103 0.7819209 -0.6099032 0.3618194 0.734327 -0.5743262 0.5438765 0.6618586 -0.5158891 0.979274 0.1432172 -0.1432172 0.9068422 0.1416562 -0.3969518 0.7818717 0.1284943 -0.610054 0.9071549 0.3958487 -0.1427365 0.8421576 0.3810143 -0.3815739 0.7332543 0.3563399 -0.5791028 0.7819209 0.6099032 -0.1289103 0.734327 0.5743262 -0.3618194 0.6618586 0.5158891 -0.5438765 0.1432172 0.1432172 -0.979274 0.1416562 0.3969518 -0.9068422 0.1284943 0.610054 -0.7818717 0.3958487 0.1427365 -0.9071549 0.3810143 0.3815739 -0.8421576 0.3563399 0.5791028 -0.7332543 0.6099032 0.1289103 -0.7819209 0.5743262 0.3618194 -0.734327 0.5158891 0.5438765 -0.6618586 0.979274 -0.1432172 0.1432172 0.9068422 -0.1416562 0.3969518 0.7818717 -0.1284943 0.610054 0.9071549 -0.3958487 0.1427365 0.8421576 -0.3810143 0.3815739 0.7332543 -0.3563399 0.5791028 0.7819209 -0.6099032 0.1289103 0.734327 -0.5743262 0.3618194 0.6618586 -0.5158891 0.5438765 0.1432172 -0.1432172 0.979274 0.1416562 -0.3969518 0.9068422 0.1284943 -0.610054 0.7818717 0.3958487 -0.1427365 0.9071549 0.3810143 -0.3815739 0.8421576 0.3563399 -0.5791028 0.7332543 0.6099032 -0.1289103 0.7819209 0.5743262 -0.3618194 0.734327 0.5158891 -0.5438765 0.6618586 0.1432172 -0.979274 0.1432172 0.3969518 -0.9068422 0.1416562 0.610054 -0.7818717 0.1284943 0.1427365 -0.9071549 0.3958487 0.3815739 -0.8421576 0.3810143 0.5791028 -0.7332543 0.3563399 0.1289103 -0.7819209 0.6099032 0.3618194 -0.734327 0.5743262 0.5438765 -0.6618586 0.5158891 0.1432172 -0.1432172 -0.979274 0.3969518 -0.1416562 -0.9068422 0.610054 -0.1284943 -0.7818717 0.1427365 -0.3958487 -0.9071549 0.3815739 -0.3810143 -0.8421576 0.5791028 -0.3563399 -0.7332543 0.1289103 -0.6099032 -0.7819209 0.3618194 -0.5743262 -0.734327 0.5438765 -0.5158891 -0.6618586 0.979274 -0.1432172 -0.1432172 0.9068422 -0.3969518 -0.1416562 0.7818717 -0.610054 -0.1284943 0.9071549 -0.1427365 -0.3958487 0.8421576 -0.3815739 -0.3810143 0.7332543 -0.5791028 -0.3563399 0.7819209 -0.1289103 -0.6099032 0.734327 -0.3618194 -0.5743262 0.6618586 -0.5438765 -0.5158891 0.1432172 -0.979274 -0.1432172 0.1416562 -0.9068422 -0.3969518 0.1284943 -0.7818717 -0.610054 0.3958487 -0.9071549 -0.1427365 0.3810143 -0.8421576 -0.3815739 0.3563399 -0.7332543 -0.5791028 0.6099032 -0.7819209 -0.1289103 0.5743262 -0.734327 -0.3618194 0.5158891 -0.6618586 -0.5438765 -0.1432172 0.979274 0.1432172 -0.3969518 0.9068422 0.1416562 -0.610054 0.7818717 0.1284943 -0.1427365 0.9071549 0.3958487 -0.3815739 0.8421576 0.3810143 -0.5791028 0.7332543 0.3563399 -0.1289103 0.7819209 0.6099032 -0.3618194 0.734327 0.5743262 -0.5438765 0.6618586 0.5158891 -0.979274 0.1432172 0.1432172 -0.9068422 0.1416562 0.3969518 -0.7818717 0.1284943 0.610054 -0.9071549 0.3958487 0.1427365 -0.8421576 0.3810143 0.3815739 -0.7332543 0.3563399 0.5791028 -0.7819209 0.6099032 0.1289103 -0.734327 0.5743262 0.3618194 -0.6618586 0.5158891 0.5438765 -0.1432172 0.1432172 0.979274 -0.1416562 0.3969518 0.9068422 -0.1284943 0.610054 0.7818717 -0.3958487 0.1427365 0.9071549 -0.3810143 0.3815739 0.8421576 -0.3563399 0.5791028 0.7332543 -0.6099032 0.1289103 0.7819209 -0.5743262 0.3618194 0.734327 -0.5158891 0.5438765 0.6618586 -0.1432172 0.979274 -0.1432172 -0.1416562 0.9068422 -0.3969518 -0.1284943 0.7818717 -0.610054 -0.3958487 0.9071549 -0.1427365 -0.3810143 0.8421576 -0.3815739 -0.3563399 0.7332543 -0.5791028 -0.6099032 0.7819209 -0.1289103 -0.5743262 0.734327 -0.3618194 -0.5158891 0.6618586 -0.5438765 -0.1432172 0.1432172 -0.979274 -0.3969518 0.1416562 -0.9068422 -0.610054 0.1284943 -0.7818717 -0.1427365 0.3958487 -0.9071549 -0.3815739 0.3810143 -0.8421576 -0.5791028 0.3563399 -0.7332543 -0.1289103 0.6099032 -0.7819209 -0.3618194 0.5743262 -0.734327 -0.5438765 0.5158891 -0.6618586 -0.979274 0.1432172 -0.1432172 -0.9068422 0.3969518 -0.1416562 -0.7818717 0.610054 -0.1284943 -0.9071549 0.1427365 -0.3958487 -0.8421576 0.3815739 -0.3810143 -0.7332543 0.5791028 -0.3563399 -0.7819209 0.1289103 -0.6099032 -0.734327 0.3618194 -0.5743262 -0.6618586 0.5438765 -0.5158891 -0.9210066 -0.2754364 0.2754662 -0.9157253 -0.3306595 0.2282792 -0.8193607 -0.5484237 0.1669715 -0.9051333 -0.2458769 0.3468116 -0.8978692 -0.3012447 0.3210647 -0.79711 -0.5348865 0.2802001 -0.8304821 -0.1669933 0.5314251 -0.811609 -0.2893748 0.5074968 -0.7328374 -0.476769 0.4854282 -0.2754662 -0.9210066 0.2754364 -0.2282792 -0.9157253 0.3306595 -0.1669715 -0.8193607 0.5484237 -0.3468116 -0.9051333 0.2458769 -0.3210647 -0.8978692 0.3012447 -0.2802001 -0.79711 0.5348865 -0.5314251 -0.8304821 0.1669933 -0.5074968 -0.811609 0.2893748 -0.4854282 -0.7328374 0.476769 -0.2754364 -0.2754662 0.9210066 -0.3306595 -0.2282792 0.9157253 -0.5484237 -0.1669715 0.8193607 -0.2458769 -0.3468116 0.9051333 -0.3012447 -0.3210647 0.8978692 -0.5348865 -0.2802001 0.79711 -0.1669933 -0.5314251 0.8304821 -0.2893748 -0.5074968 0.811609 -0.476769 -0.4854282 0.7328374 -0.1432172 -0.1432172 -0.979274 -0.1416562 -0.3969518 -0.9068422 -0.1284943 -0.610054 -0.7818717 -0.3958487 -0.1427365 -0.9071549 -0.3810143 -0.3815739 -0.8421576 -0.3563399 -0.5791028 -0.7332543 -0.6099032 -0.1289103 -0.7819209 -0.5743262 -0.3618194 -0.734327 -0.5158891 -0.5438765 -0.6618586 -0.1432172 -0.979274 -0.1432172 -0.3969518 -0.9068422 -0.1416562 -0.610054 -0.7818717 -0.1284943 -0.1427365 -0.9071549 -0.3958487 -0.3815739 -0.8421576 -0.3810143 -0.5791028 -0.7332543 -0.3563399 -0.1289103 -0.7819209 -0.6099032 -0.3618194 -0.734327 -0.5743262 -0.5438765 -0.6618586 -0.5158891 -0.979274 -0.1432172 -0.1432172 -0.9068422 -0.1416562 -0.3969518 -0.7818717 -0.1284943 -0.610054 -0.9071549 -0.3958487 -0.1427365 -0.8421576 -0.3810143 -0.3815739 -0.7332543 -0.3563399 -0.5791028 -0.7819209 -0.6099032 -0.1289103 -0.734327 -0.5743262 -0.3618194 -0.6618586 -0.5158891 -0.5438765 0.1305 0 0.9914483 0.3826785 0 0.9238816 0.6088094 0 0.7933166 0.7933262 0 0.6087968 0.9238745 0 0.3826956 0.9914483 0 0.1305 0 0.9914483 0.1305 0 0.9238816 0.3826785 0 0.7933166 0.6088094 0 0.6087968 0.7933262 0 0.3826956 0.9238745 0 0.1305 0.9914483 -0.9891898 -2.45897e-5 0.1466415 -0.9238844 -2.4505e-5 0.3826717 -0.8031292 0 0.5958048 -0.5958048 -2.45789e-5 0.8031292 -0.3826958 -2.45046e-5 0.9238744 -0.146619 -2.45554e-5 0.9891931 -2.45897e-5 -0.1466415 0.9891898 -2.4505e-5 -0.3826717 0.9238844 0 -0.5958048 0.8031292 -2.45789e-5 -0.8031292 0.5958048 -2.45046e-5 -0.9238744 0.3826958 -2.45554e-5 -0.9891931 0.146619 0 -0.9914483 -0.1305 0 -0.9238816 -0.3826785 0 -0.7933166 -0.6088094 0 -0.6087968 -0.7933262 0 -0.3826956 -0.9238745 0 -0.1305 -0.9914483 0.1305 -0.9914483 0 0.3826785 -0.9238816 0 0.6088094 -0.7933166 0 0.7933262 -0.6087968 0 0.9238745 -0.3826956 0 0.9914483 -0.1305 0 -0.9914483 -0.1305 0 -0.9238816 -0.3826785 2.45329e-5 -0.7933166 -0.6088094 0 -0.6087968 -0.7933262 2.45055e-5 -0.3826956 -0.9238745 2.4544e-5 -0.1305 -0.9914483 0 -0.1305 0.9914483 0 -0.3826785 0.9238816 0 -0.6088094 0.7933166 0 -0.7933262 0.6087968 0 -0.9238745 0.3826956 0 -0.9914483 0.1305 0 -0.1305 0 -0.9914483 -0.3826785 0 -0.9238816 -0.6088094 0 -0.7933166 -0.7933262 0 -0.6087968 -0.9238745 0 -0.3826956 -0.9914483 0 -0.1305 0 0.1305 -0.9914483 0 0.3826785 -0.9238816 0 0.6088094 -0.7933166 0 0.7933262 -0.6087968 0 0.9238745 -0.3826956 0 0.9914483 -0.1305 0.9914483 0 -0.1305 0.9238816 0 -0.3826785 0.7933166 0 -0.6088094 0.6087968 0 -0.7933262 0.3826956 0 -0.9238745 0.1305 0 -0.9914483 0.9914483 0.1305 0 0.9238816 0.3826785 0 0.7933166 0.6088094 0 0.6087968 0.7933262 0 0.3826956 0.9238745 0 0.1305 0.9914483 0 1 0 0 1 0 0 1 0 0 1 0 0 1 0 0 0 0 1 0 1 0 0 0 -1 1 0 0 0 -1 0 -1 0 0 -1 0 0 -1 0 0 -1 0 0 -1 0 0 -1 0 0</float_array>
          <technique_common>
            <accessor source="#Cube-mesh-normals-array" count="608" stride="3">
              <param name="X" type="float"/>
              <param name="Y" type="float"/>
              <param name="Z" type="float"/>
            </accessor>
          </technique_common>
        </source>
        <source id="Cube-mesh-map-0">
          <float_array id="Cube-mesh-map-0-array" count="3648">0.375 0.3667979 0.625 0.3832021 0.625 0.3667979 0.375 0.8832021 0.625 0.8667979 0.375 0.8667979 0.2417979 0.75 0.2582021 0.5 0.2417979 0.5 0.7417979 0.5 0.7582021 0.75 0.7582021 0.5 0.9955016 0.004333257 0.9969831 0.005814552 0.9955016 0.005814492 0.9955016 0.002951443 0.9970295 0.00427407 0.9955016 0.004333257 0.9955015 8.93385e-5 0.9970045 0.002942681 0.9955016 0.002951443 0.9970295 0.00427407 0.9983646 0.005814552 0.9969831 0.005814552 0.9970045 0.002942681 0.998375 0.004302978 0.9970295 0.00427407 0.9970045 0.002942681 0.9981086 8.93385e-5 0.9982286 0.00308609 0.998375 0.004302978 1.001227 0.005814552 0.9983646 0.005814552 0.998375 0.004302978 1.001227 0.003207385 1.001227 0.004342317 0.9982286 0.00308609 0.998807 8.93385e-5 1.001227 0.003207385 0.6239408 0.4985712 0.6235711 0.4989408 0.6235711 0.4985712 0.6242857 0.4985711 0.6239556 0.4989525 0.6239408 0.4985712 0.6257145 0.4992856 0.6242879 0.4989462 0.6242857 0.4985711 0.6239556 0.4989525 0.6235712 0.4992856 0.6235711 0.4989408 0.6242879 0.4989462 0.6239483 0.4992882 0.6239556 0.4989525 0.6242879 0.4989462 0.6253889 0.4996107 0.6242521 0.4992517 0.6239483 0.4992882 0.6235711 0.5 0.6235712 0.4992856 0.6239483 0.4992882 0.6242218 0.5 0.6239386 0.5 0.6242521 0.4992517 0.6250001 0.5 0.6242218 0.5 0.6260591 0.5014289 0.6264289 0.5010592 0.6264289 0.5014289 0.6257144 0.5014289 0.6260444 0.5010476 0.6260591 0.5014289 0.625 0.5014289 0.625712 0.5010538 0.6257144 0.5014289 0.6260444 0.5010476 0.6264289 0.5007143 0.6264289 0.5010592 0.625712 0.5010538 0.6260517 0.5007117 0.6260444 0.5010476 0.625712 0.5010538 0.625 0.5007782 0.6257479 0.5007482 0.6260517 0.5007117 0.6257145 0.4992856 0.6264289 0.5007143 0.6260517 0.5007117 0.6253889 0.4996107 0.6255311 0.4994696 0.6257479 0.5007482 0.6250001 0.5 0.6253889 0.4996107 0.3764289 0.4989408 0.3760592 0.4985711 0.3764289 0.4985712 0.3764289 0.4992856 0.3760476 0.4989556 0.3764289 0.4989408 0.3764289 0.5 0.3760538 0.4992879 0.3764289 0.4992856 0.3760476 0.4989556 0.3757144 0.4985711 0.3760592 0.4985711 0.3760538 0.4992879 0.3757117 0.4989483 0.3760476 0.4989556 0.3760538 0.4992879 0.3757781 0.5 0.3757482 0.499252 0.3757117 0.4989483 0.3742855 0.4992856 0.3757144 0.4985711 0.3757117 0.4989483 0.3746107 0.4996111 0.3744696 0.4994689 0.3757482 0.499252 0.375 0.5 0.3746107 0.4996111 0.003768086 0.005814552 0.005249381 0.004333257 0.005249321 0.005814492 0.002386331 0.005814552 0.003708899 0.004286646 0.003768086 0.005814552 -4.75829e-4 0.005814552 0.00237751 0.004311561 0.002386331 0.005814552 0.003708899 0.004286646 0.005249381 0.002951443 0.005249381 0.004333257 0.00237751 0.004311561 0.003737807 0.002941131 0.003708899 0.004286646 0.00237751 0.004311561 -4.75829e-4 0.003207385 0.002521574 0.003086745 0.003737807 0.002941131 0.005249381 8.93385e-5 0.005249381 0.002951443 0.003737807 0.002941131 0.002642214 8.93387e-5 0.003777146 8.93385e-5 0.002521574 0.003086745 -4.75829e-4 0.002509057 0.002642214 8.93387e-5 0.3735711 0.5010591 0.3739408 0.5014289 0.3735711 0.5014289 0.3735711 0.5007144 0.3739525 0.5010444 0.3735711 0.5010591 0.3742855 0.4992856 0.3739462 0.5007122 0.3735711 0.5007144 0.3739525 0.5010444 0.3742856 0.5014289 0.3739408 0.5014289 0.3739462 0.5007122 0.3742883 0.5010516 0.3739525 0.5010444 0.3739462 0.5007122 0.3746107 0.4996111 0.3742517 0.5007479 0.3742883 0.5010516 0.375 0.5014289 0.3742856 0.5014289 0.3742883 0.5010516 0.375 0.5007782 0.375 0.5010614 0.3742517 0.5007479 0.375 0.5 0.375 0.5007782 0.9969828 0.9960668 0.9955015 0.9975481 0.9955017 0.9960668 0.9983646 0.9960667 0.9970421 0.9975948 0.9969828 0.9960668 1.001227 0.9960669 0.9983734 0.9975698 0.9983646 0.9960667 0.9970421 0.9975948 0.9955016 0.99893 0.9955015 0.9975481 0.9983734 0.9975698 0.9970133 0.9989403 0.9970421 0.9975948 0.9983734 0.9975698 1.001227 0.9986739 0.9982299 0.9987938 0.9970133 0.9989403 0.9955016 1.001792 0.9955016 0.99893 0.9970133 0.9989403 0.9981087 1.001792 0.9969738 1.001792 0.9982299 0.9987938 1.001227 0.9993723 0.9981087 1.001792 0.6264289 0.7489408 0.6260591 0.7485712 0.6264289 0.7485712 0.6264289 0.7492858 0.6260476 0.7489556 0.6264289 0.7489408 0.6257144 0.7507144 0.6260538 0.7492879 0.6264289 0.7492858 0.6260476 0.7489556 0.6257143 0.7485711 0.6260591 0.7485712 0.6260538 0.7492879 0.6257117 0.7489483 0.6260476 0.7489556 0.6260538 0.7492879 0.6253893 0.7503889 0.6257482 0.749252 0.6257117 0.7489483 0.6250001 0.7485711 0.6257143 0.7485711 0.6257117 0.7489483 0.625 0.7492219 0.625 0.7489386 0.6257482 0.749252 0.625 0.75 0.625 0.7492219 0.6235711 0.7510592 0.6239408 0.751429 0.6235712 0.7514289 0.6235711 0.7507143 0.6239525 0.7510444 0.6235711 0.7510592 0.6235712 0.75 0.6239463 0.7507122 0.6235711 0.7507143 0.6239525 0.7510444 0.6242858 0.7514289 0.6239408 0.751429 0.6239463 0.7507122 0.6242883 0.7510516 0.6239525 0.7510444 0.6239463 0.7507122 0.6242218 0.75 0.6242517 0.7507479 0.6242883 0.7510516 0.6257144 0.7507144 0.6242858 0.7514289 0.6242883 0.7510516 0.6253893 0.7503889 0.6255304 0.7505312 0.6242517 0.7507479 0.625 0.75 0.6253893 0.7503889 0.3739408 0.7485712 0.3735711 0.7489408 0.3735711 0.7485712 0.3742856 0.7485711 0.3739556 0.7489524 0.3739408 0.7485712 0.375 0.748571 0.3742879 0.7489462 0.3742856 0.7485711 0.3739556 0.7489524 0.3735711 0.7492858 0.3735711 0.7489408 0.3742879 0.7489462 0.3739484 0.7492882 0.3739556 0.7489524 0.3742879 0.7489462 0.375 0.7492218 0.3742521 0.7492518 0.3739484 0.7492882 0.3742855 0.7507145 0.3735711 0.7492858 0.3739484 0.7492882 0.374611 0.7503892 0.3744689 0.7505303 0.3742521 0.7492518 0.375 0.75 0.374611 0.7503892 0.005249381 0.9975481 0.003768086 0.9960669 0.005249321 0.9960669 0.005249381 0.9989299 0.003721475 0.9976072 0.005249381 0.9975481 0.005249381 1.001792 0.00374639 0.9989386 0.005249381 0.9989299 0.003721475 0.9976072 0.002386331 0.9960669 0.003768086 0.9960669 0.00374639 0.9989386 0.00237596 0.9975786 0.003721475 0.9976072 0.00374639 0.9989386 0.002642214 1.001792 0.002521574 0.9987946 0.00237596 0.9975786 -4.75829e-4 0.9960669 0.002386331 0.9960669 0.00237596 0.9975786 -4.75828e-4 0.998674 -4.75827e-4 0.9975391 0.002521574 0.9987946 0.001943886 1.001792 -4.75828e-4 0.998674 0.3760592 0.751429 0.3764289 0.7510592 0.3764289 0.7514289 0.3757143 0.7514289 0.3760443 0.7510476 0.3760592 0.751429 0.3742855 0.7507145 0.3757121 0.7510537 0.3757143 0.7514289 0.3760443 0.7510476 0.3764289 0.7507144 0.3764289 0.7510592 0.3757121 0.7510537 0.3760516 0.7507117 0.3760443 0.7510476 0.3757121 0.7510537 0.374611 0.7503892 0.3757479 0.7507482 0.3760516 0.7507117 0.3764289 0.7500001 0.3764289 0.7507144 0.3760516 0.7507117 0.3757782 0.75 0.3760614 0.75 0.3757479 0.7507482 0.375 0.75 0.3757782 0.75 0.6235711 0.2510592 0.6239408 0.2514289 0.6235712 0.2514289 0.6235711 0.2507143 0.6239525 0.2510445 0.6235711 0.2510592 0.6235712 0.25 0.6239463 0.2507122 0.6235711 0.2507143 0.6239525 0.2510445 0.6242857 0.2514289 0.6239408 0.2514289 0.6239463 0.2507122 0.6242883 0.2510516 0.6239525 0.2510445 0.6239463 0.2507122 0.6242218 0.25 0.6242517 0.2507479 0.6242883 0.2510516 0.6250001 0.2514289 0.6242857 0.2514289 0.6242883 0.2510516 0.625 0.2507782 0.625 0.2510614 0.6242517 0.2507479 0.6243961 0.25 0.625 0.2507782 1.001046 0.9886779 0.9995684 0.9901558 0.9995684 0.9886779 1.002425 0.988678 1.001105 0.9902023 1.001046 0.9886779 1.00528 0.988678 1.002433 0.9901775 1.002425 0.988678 1.001105 0.9902023 0.9995682 0.9915343 0.9995684 0.9901558 1.002433 0.9901775 1.001076 0.9915446 1.001105 0.9902023 1.002433 0.9901775 1.00528 0.9912789 1.00229 0.9913986 1.001076 0.9915446 0.9995685 0.9943898 0.9995682 0.9915343 1.001076 0.9915446 1.002169 0.9943897 1.001037 0.9943897 1.00229 0.9913986 1.00528 0.9919756 1.002169 0.9943897 0.8735712 0.5010591 0.8739408 0.5014288 0.8735711 0.5014289 0.8735712 0.5007144 0.8739525 0.5010444 0.8735712 0.5010591 0.8735711 0.5 0.8739462 0.5007122 0.8735712 0.5007144 0.8739525 0.5010444 0.8742857 0.5014289 0.8739408 0.5014288 0.8739462 0.5007122 0.8742883 0.5010516 0.8739525 0.5010444 0.8739462 0.5007122 0.8742218 0.5 0.8742518 0.5007479 0.8742883 0.5010516 0.8750001 0.5014289 0.8742857 0.5014289 0.8742883 0.5010516 0.8750001 0.5007782 0.875 0.5010614 0.8742518 0.5007479 0.8743961 0.5 0.8750001 0.5007782 0.3760592 0.2514289 0.3764289 0.2510592 0.3764289 0.2514289 0.3757143 0.2514289 0.3760443 0.2510476 0.3760592 0.2514289 0.375 0.2514289 0.3757121 0.2510538 0.3757143 0.2514289 0.3760443 0.2510476 0.3764289 0.2507143 0.3764289 0.2510592 0.3757121 0.2510538 0.3760516 0.2507117 0.3760443 0.2510476 0.3757121 0.2510538 0.375 0.2507782 0.3757479 0.2507482 0.3760516 0.2507117 0.3764289 0.25 0.3764289 0.2507143 0.3760516 0.2507117 0.3757782 0.25 0.3760614 0.25 0.3757479 0.2507482 0.375 0.2506039 0.3757782 0.25 0.1260592 0.5014289 0.1264289 0.5010592 0.1264289 0.5014289 0.1257143 0.5014289 0.1260443 0.5010476 0.1260592 0.5014289 0.125 0.5014289 0.1257121 0.5010538 0.1257143 0.5014289 0.1260443 0.5010476 0.1264289 0.5007144 0.1264289 0.5010592 0.1257121 0.5010538 0.1260516 0.5007118 0.1260443 0.5010476 0.1257121 0.5010538 0.125 0.5007782 0.1257479 0.5007482 0.1260516 0.5007118 0.1264289 0.5 0.1264289 0.5007144 0.1260516 0.5007118 0.1257781 0.5 0.1260614 0.5 0.1257479 0.5007482 0.125 0.5006039 0.1257781 0.5 0.01165992 0.9901558 0.01018214 0.9886779 0.01165992 0.988678 0.01165992 0.9915343 0.01013565 0.9902148 0.01165992 0.9901558 0.01165992 0.9943897 0.01016056 0.9915431 0.01165992 0.9915343 0.01013565 0.9902148 0.008803665 0.988678 0.01018214 0.9886779 0.01016056 0.9915431 0.008793354 0.990186 0.01013565 0.9902148 0.01016056 0.9915431 0.009058952 0.9943896 0.00893861 0.9913994 0.008793354 0.990186 0.005948245 0.988678 0.008803665 0.988678 0.008793354 0.990186 0.005948245 0.9912788 0.005948245 0.9901466 0.00893861 0.9913994 0.008362293 0.9943897 0.005948245 0.9912788 0.9995684 -7.01892e-4 1.00104 7.69538e-4 0.9995684 7.69536e-4 0.9995685 -0.00207448 1.001006 -6.79853e-4 0.9995684 -7.01892e-4 0.9995683 -0.004942059 1.00099 -0.002003312 0.9995685 -0.00207448 1.001006 -6.79853e-4 1.002412 7.69538e-4 1.00104 7.69538e-4 1.00099 -0.002003312 1.002329 -6.53644e-4 1.001006 -6.79853e-4 1.00099 -0.002003312 1.002153 -0.004942059 1.002232 -0.001894354 1.002329 -6.53644e-4 1.00528 7.69568e-4 1.002412 7.69538e-4 1.002329 -6.53644e-4 1.00528 -0.001815378 1.00528 -6.39736e-4 1.002232 -0.001894354 1.002891 -0.004942059 1.00528 -0.001815378 0.6239392 0.9985712 0.6235711 0.9989391 0.6235712 0.9985712 0.6242826 0.9985712 0.6239339 0.9989308 0.6239392 0.9985712 0.625 0.9985712 0.6242648 0.9989268 0.6242826 0.9985712 0.6239339 0.9989308 0.6235712 0.9992827 0.6235711 0.9989391 0.6242648 0.9989268 0.6239272 0.9992618 0.6239339 0.9989308 0.6242648 0.9989268 0.625 0.9992178 0.6242377 0.9992375 0.6239272 0.9992618 0.6235712 1 0.6235712 0.9992827 0.6239272 0.9992618 0.6242177 1 0.6239237 1 0.6242377 0.9992375 0.625 0.9994025 0.6242177 1 0.8739393 0.7485712 0.8735712 0.7489392 0.8735713 0.7485712 0.8742827 0.7485711 0.8739337 0.7489308 0.8739393 0.7485712 0.8750001 0.748571 0.874265 0.7489269 0.8742827 0.7485711 0.8739337 0.7489308 0.8735712 0.7492826 0.8735712 0.7489392 0.874265 0.7489269 0.8739271 0.7492617 0.8739337 0.7489308 0.874265 0.7489269 0.875 0.7492178 0.8742379 0.7492374 0.8739271 0.7492617 0.8735711 0.75 0.8735712 0.7492826 0.8739271 0.7492617 0.8742178 0.75 0.8739238 0.7500001 0.8742379 0.7492374 0.875 0.7494025 0.8742178 0.75 0.1264289 0.7489409 0.1260591 0.7485712 0.1264289 0.7485712 0.1264289 0.7492857 0.1260475 0.7489556 0.1264289 0.7489409 0.1264289 0.75 0.1260538 0.7492879 0.1264289 0.7492857 0.1260475 0.7489556 0.1257143 0.7485711 0.1260591 0.7485712 0.1260538 0.7492879 0.1257117 0.7489483 0.1260475 0.7489556 0.1260538 0.7492879 0.1257781 0.75 0.1257482 0.749252 0.1257117 0.7489483 0.125 0.7485711 0.1257143 0.7485711 0.1257117 0.7489483 0.125 0.7492219 0.125 0.7489386 0.1257482 0.749252 0.1256039 0.75 0.125 0.7492219 0.3764289 0.9989409 0.3760592 0.998571 0.3764289 0.9985712 0.3764289 0.9992856 0.3760476 0.9989557 0.3764289 0.9989409 0.3764289 1 0.3760538 0.9992879 0.3764289 0.9992856 0.3760476 0.9989557 0.3757144 0.9985712 0.3760592 0.998571 0.3760538 0.9992879 0.3757117 0.9989483 0.3760476 0.9989557 0.3760538 0.9992879 0.3757781 1 0.3757482 0.999252 0.3757117 0.9989483 0.375 0.9985712 0.3757144 0.9985712 0.3757117 0.9989483 0.375 0.9992218 0.375 0.9989385 0.3757482 0.999252 0.3756039 1 0.375 0.9992218 0.01018214 7.69568e-4 0.01165992 -7.08205e-4 0.01165992 7.69538e-4 0.008803665 7.69568e-4 0.01012313 -7.54696e-4 0.01018214 7.69568e-4 0.005948245 7.69568e-4 0.008794903 -7.29827e-4 0.008803665 7.69568e-4 0.01012313 -7.54696e-4 0.01165992 -0.002086699 0.01165992 -7.08205e-4 0.008794903 -7.29827e-4 0.01015192 -0.00209701 0.01012313 -7.54696e-4 0.008794903 -7.29827e-4 0.005948245 -0.001831352 0.008937954 -0.001951038 0.01015192 -0.00209701 0.01165992 -0.004942059 0.01165992 -0.002086699 0.01015192 -0.00209701 0.009058952 -0.004942059 0.0101912 -0.004942059 0.008937954 -0.001951038 0.005948245 -0.002528011 0.009058952 -0.004942059 0.6264289 0.7485712 0.6260591 0.5014289 0.6264289 0.5014289 0.6260591 0.7485712 0.6257144 0.5014289 0.6260591 0.5014289 0.6257143 0.7485711 0.625 0.5014289 0.6257144 0.5014289 1.001227 0.9960669 0.9983646 0.005814552 1.001227 0.005814552 0.9983646 0.9960667 0.9969831 0.005814552 0.9983646 0.005814552 0.9969828 0.9960668 0.9955016 0.005814492 0.9969831 0.005814552 0.6235712 0.2514289 0.6239408 0.4985712 0.6235711 0.4985712 0.6239408 0.2514289 0.6242857 0.4985711 0.6239408 0.4985712 0.6242857 0.2514289 0.6257145 0.4992856 0.6242857 0.4985711 0.8735711 0.5 0.6264289 0.5007143 0.6257145 0.4992856 0.8735712 0.5007144 0.6264289 0.5010592 0.6264289 0.5007143 0.8735712 0.5010591 0.6264289 0.5014289 0.6264289 0.5010592 0.9995684 7.69536e-4 1.001046 0.9886779 0.9995684 0.9886779 1.00104 7.69538e-4 1.002425 0.988678 1.001046 0.9886779 1.002412 7.69538e-4 1.00528 0.988678 1.002425 0.988678 0.8750001 0.748571 0.8742857 0.5014289 0.8750001 0.5014289 0.8742827 0.7485711 0.8739408 0.5014288 0.8742857 0.5014289 0.8739408 0.5014288 0.8735713 0.7485712 0.8735711 0.5014289 0.8735713 0.7485712 0.6264289 0.7489408 0.6264289 0.7485712 0.8735712 0.7489392 0.6264289 0.7492858 0.6264289 0.7489408 0.8735712 0.7492826 0.6257144 0.7507144 0.6264289 0.7492858 0.625 0.9985712 0.6242858 0.7514289 0.6257144 0.7507144 0.6242826 0.9985712 0.6239408 0.751429 0.6242858 0.7514289 0.6239408 0.751429 0.6235712 0.9985712 0.6235712 0.7514289 0.3764289 0.9985712 0.3760592 0.751429 0.3764289 0.7514289 0.3760592 0.998571 0.3757143 0.7514289 0.3760592 0.751429 0.3757144 0.9985712 0.3742855 0.7507145 0.3757143 0.7514289 0.1264289 0.75 0.3735711 0.7492858 0.3742855 0.7507145 0.1264289 0.7492857 0.3735711 0.7489408 0.3735711 0.7492858 0.1264289 0.7489409 0.3735711 0.7485712 0.3735711 0.7489408 0.3764289 0.7514289 0.6235711 0.7510592 0.6235712 0.7514289 0.3764289 0.7510592 0.6235711 0.7507143 0.6235711 0.7510592 0.3764289 0.7507144 0.6235712 0.75 0.6235711 0.7507143 0.005249381 1.001792 0.9955016 0.99893 0.9955016 1.001792 0.005249381 0.9989299 0.9955015 0.9975481 0.9955016 0.99893 0.005249381 0.9975481 0.9955017 0.9960668 0.9955015 0.9975481 0.9995684 7.69536e-4 0.01165992 -7.08205e-4 0.9995684 -7.01892e-4 0.01165992 -7.08205e-4 0.9995685 -0.00207448 0.9995684 -7.01892e-4 0.01165992 -0.002086699 0.9995683 -0.004942059 0.9995685 -0.00207448 0.3764289 1 0.6235712 0.9992827 0.6235712 1 0.3764289 0.9992856 0.6235711 0.9989391 0.6235712 0.9992827 0.3764289 0.9989409 0.6235712 0.9985712 0.6235711 0.9989391 0.3764289 0.2514289 0.6235711 0.2510592 0.6235712 0.2514289 0.3764289 0.2510592 0.6235711 0.2507143 0.6235711 0.2510592 0.3764289 0.2507143 0.6235712 0.25 0.6235711 0.2507143 0.01165992 0.9943897 0.9995682 0.9915343 0.9995685 0.9943898 0.01165992 0.9915343 0.9995684 0.9901558 0.9995682 0.9915343 0.01165992 0.9901558 0.9995684 0.9886779 0.9995684 0.9901558 0.1264289 0.7485712 0.1260592 0.5014289 0.1264289 0.5014289 0.1260591 0.7485712 0.1257143 0.5014289 0.1260592 0.5014289 0.1257143 0.7485711 0.125 0.5014289 0.1257143 0.5014289 0.005948245 7.69568e-4 0.008803665 0.988678 0.005948245 0.988678 0.008803665 7.69568e-4 0.01018214 0.9886779 0.008803665 0.988678 0.01018214 7.69568e-4 0.01165992 0.988678 0.01018214 0.9886779 0.1264289 0.5014289 0.3735711 0.5010591 0.3735711 0.5014289 0.1264289 0.5010592 0.3735711 0.5007144 0.3735711 0.5010591 0.1264289 0.5007144 0.3742855 0.4992856 0.3735711 0.5007144 0.375 0.2514289 0.3757144 0.4985711 0.3742855 0.4992856 0.3757143 0.2514289 0.3760592 0.4985711 0.3757144 0.4985711 0.3760592 0.2514289 0.3764289 0.4985712 0.3760592 0.4985711 0.005249321 0.9960669 0.003768086 0.005814552 0.005249321 0.005814492 0.003768086 0.9960669 0.002386331 0.005814552 0.003768086 0.005814552 0.002386331 0.9960669 -4.75829e-4 0.005814552 0.002386331 0.005814552 0.375 0.748571 0.3742856 0.5014289 0.375 0.5014289 0.3742856 0.7485711 0.3739408 0.5014289 0.3742856 0.5014289 0.3739408 0.7485712 0.3735711 0.5014289 0.3739408 0.5014289 0.005249321 0.005814492 0.9955016 0.004333257 0.9955016 0.005814492 0.005249381 0.004333257 0.9955016 0.002951443 0.9955016 0.004333257 0.005249381 0.002951443 0.9955015 8.93385e-5 0.9955016 0.002951443 0.3764289 0.5 0.6235712 0.4992856 0.6235711 0.5 0.3764289 0.4992856 0.6235711 0.4989408 0.6235712 0.4992856 0.3764289 0.4989408 0.6235711 0.4985712 0.6235711 0.4989408 0.9955016 0.005814492 0.9955017 0.9960668 0.8581266 0.1431896 0.8735711 0.5014289 0.6264289 0.7485712 0.6264289 0.5014289 0.6235712 0.2514289 0.3764289 0.4985712 0.3764289 0.2514289 0.3735711 0.5014289 0.1264289 0.7485712 0.1264289 0.5014289 0.005249321 0.9960669 0.1426244 0.1431897 0.1426246 0.8586916 0.6235712 0.7514289 0.3764289 0.9985712 0.3764289 0.7514289 0.9995684 0.9886779 0.14871 0.851628 0.8625184 0.851628 0.01165992 7.69538e-4 0.8625184 0.1378195 0.1487099 0.1378195 0.375 0.3667979 0.375 0.3832021 0.625 0.3832021 0.375 0.8832021 0.625 0.8832021 0.625 0.8667979 0.2417979 0.75 0.2582021 0.75 0.2582021 0.5 0.7417979 0.5 0.7417979 0.75 0.7582021 0.75 0.9955016 0.004333257 0.9970295 0.00427407 0.9969831 0.005814552 0.9955016 0.002951443 0.9970045 0.002942681 0.9970295 0.00427407 0.9955015 8.93385e-5 0.9969738 8.93385e-5 0.9970045 0.002942681 0.9970295 0.00427407 0.998375 0.004302978 0.9983646 0.005814552 0.9970045 0.002942681 0.9982286 0.00308609 0.998375 0.004302978 0.9970045 0.002942681 0.9969738 8.93385e-5 0.9981086 8.93385e-5 0.998375 0.004302978 1.001227 0.004342317 1.001227 0.005814552 0.998375 0.004302978 0.9982286 0.00308609 1.001227 0.003207385 0.9982286 0.00308609 0.9981086 8.93385e-5 0.998807 8.93385e-5 0.6239408 0.4985712 0.6239556 0.4989525 0.6235711 0.4989408 0.6242857 0.4985711 0.6242879 0.4989462 0.6239556 0.4989525 0.6257145 0.4992856 0.6255311 0.4994696 0.6242879 0.4989462 0.6239556 0.4989525 0.6239483 0.4992882 0.6235712 0.4992856 0.6242879 0.4989462 0.6242521 0.4992517 0.6239483 0.4992882 0.6242879 0.4989462 0.6255311 0.4994696 0.6253889 0.4996107 0.6239483 0.4992882 0.6239386 0.5 0.6235711 0.5 0.6239483 0.4992882 0.6242521 0.4992517 0.6242218 0.5 0.6242521 0.4992517 0.6253889 0.4996107 0.6250001 0.5 0.6260591 0.5014289 0.6260444 0.5010476 0.6264289 0.5010592 0.6257144 0.5014289 0.625712 0.5010538 0.6260444 0.5010476 0.625 0.5014289 0.625 0.5010614 0.625712 0.5010538 0.6260444 0.5010476 0.6260517 0.5007117 0.6264289 0.5007143 0.625712 0.5010538 0.6257479 0.5007482 0.6260517 0.5007117 0.625712 0.5010538 0.625 0.5010614 0.625 0.5007782 0.6260517 0.5007117 0.6255311 0.4994696 0.6257145 0.4992856 0.6260517 0.5007117 0.6257479 0.5007482 0.6253889 0.4996107 0.6257479 0.5007482 0.625 0.5007782 0.6250001 0.5 0.3764289 0.4989408 0.3760476 0.4989556 0.3760592 0.4985711 0.3764289 0.4992856 0.3760538 0.4992879 0.3760476 0.4989556 0.3764289 0.5 0.3760614 0.5 0.3760538 0.4992879 0.3760476 0.4989556 0.3757117 0.4989483 0.3757144 0.4985711 0.3760538 0.4992879 0.3757482 0.499252 0.3757117 0.4989483 0.3760538 0.4992879 0.3760614 0.5 0.3757781 0.5 0.3757117 0.4989483 0.3744696 0.4994689 0.3742855 0.4992856 0.3757117 0.4989483 0.3757482 0.499252 0.3746107 0.4996111 0.3757482 0.499252 0.3757781 0.5 0.375 0.5 0.003768086 0.005814552 0.003708899 0.004286646 0.005249381 0.004333257 0.002386331 0.005814552 0.00237751 0.004311561 0.003708899 0.004286646 -4.75829e-4 0.005814552 -4.75829e-4 0.004342317 0.00237751 0.004311561 0.003708899 0.004286646 0.003737807 0.002941131 0.005249381 0.002951443 0.00237751 0.004311561 0.002521574 0.003086745 0.003737807 0.002941131 0.00237751 0.004311561 -4.75829e-4 0.004342317 -4.75829e-4 0.003207385 0.003737807 0.002941131 0.003777146 8.93385e-5 0.005249381 8.93385e-5 0.003737807 0.002941131 0.002521574 0.003086745 0.002642214 8.93387e-5 0.002521574 0.003086745 -4.75829e-4 0.003207385 -4.75829e-4 0.002509057 0.3735711 0.5010591 0.3739525 0.5010444 0.3739408 0.5014289 0.3735711 0.5007144 0.3739462 0.5007122 0.3739525 0.5010444 0.3742855 0.4992856 0.3744696 0.4994689 0.3739462 0.5007122 0.3739525 0.5010444 0.3742883 0.5010516 0.3742856 0.5014289 0.3739462 0.5007122 0.3742517 0.5007479 0.3742883 0.5010516 0.3739462 0.5007122 0.3744696 0.4994689 0.3746107 0.4996111 0.3742883 0.5010516 0.375 0.5010614 0.375 0.5014289 0.3742883 0.5010516 0.3742517 0.5007479 0.375 0.5007782 0.3742517 0.5007479 0.3746107 0.4996111 0.375 0.5 0.9969828 0.9960668 0.9970421 0.9975948 0.9955015 0.9975481 0.9983646 0.9960667 0.9983734 0.9975698 0.9970421 0.9975948 1.001227 0.9960669 1.001227 0.9975391 0.9983734 0.9975698 0.9970421 0.9975948 0.9970133 0.9989403 0.9955016 0.99893 0.9983734 0.9975698 0.9982299 0.9987938 0.9970133 0.9989403 0.9983734 0.9975698 1.001227 0.9975391 1.001227 0.9986739 0.9970133 0.9989403 0.9969738 1.001792 0.9955016 1.001792 0.9970133 0.9989403 0.9982299 0.9987938 0.9981087 1.001792 0.9982299 0.9987938 1.001227 0.9986739 1.001227 0.9993723 0.6264289 0.7489408 0.6260476 0.7489556 0.6260591 0.7485712 0.6264289 0.7492858 0.6260538 0.7492879 0.6260476 0.7489556 0.6257144 0.7507144 0.6255304 0.7505312 0.6260538 0.7492879 0.6260476 0.7489556 0.6257117 0.7489483 0.6257143 0.7485711 0.6260538 0.7492879 0.6257482 0.749252 0.6257117 0.7489483 0.6260538 0.7492879 0.6255304 0.7505312 0.6253893 0.7503889 0.6257117 0.7489483 0.625 0.7489386 0.6250001 0.7485711 0.6257117 0.7489483 0.6257482 0.749252 0.625 0.7492219 0.6257482 0.749252 0.6253893 0.7503889 0.625 0.75 0.6235711 0.7510592 0.6239525 0.7510444 0.6239408 0.751429 0.6235711 0.7507143 0.6239463 0.7507122 0.6239525 0.7510444 0.6235712 0.75 0.6239386 0.7500001 0.6239463 0.7507122 0.6239525 0.7510444 0.6242883 0.7510516 0.6242858 0.7514289 0.6239463 0.7507122 0.6242517 0.7507479 0.6242883 0.7510516 0.6239463 0.7507122 0.6239386 0.7500001 0.6242218 0.75 0.6242883 0.7510516 0.6255304 0.7505312 0.6257144 0.7507144 0.6242883 0.7510516 0.6242517 0.7507479 0.6253893 0.7503889 0.6242517 0.7507479 0.6242218 0.75 0.625 0.75 0.3739408 0.7485712 0.3739556 0.7489524 0.3735711 0.7489408 0.3742856 0.7485711 0.3742879 0.7489462 0.3739556 0.7489524 0.375 0.748571 0.375 0.7489385 0.3742879 0.7489462 0.3739556 0.7489524 0.3739484 0.7492882 0.3735711 0.7492858 0.3742879 0.7489462 0.3742521 0.7492518 0.3739484 0.7492882 0.3742879 0.7489462 0.375 0.7489385 0.375 0.7492218 0.3739484 0.7492882 0.3744689 0.7505303 0.3742855 0.7507145 0.3739484 0.7492882 0.3742521 0.7492518 0.374611 0.7503892 0.3742521 0.7492518 0.375 0.7492218 0.375 0.75 0.005249381 0.9975481 0.003721475 0.9976072 0.003768086 0.9960669 0.005249381 0.9989299 0.00374639 0.9989386 0.003721475 0.9976072 0.005249381 1.001792 0.003777146 1.001792 0.00374639 0.9989386 0.003721475 0.9976072 0.00237596 0.9975786 0.002386331 0.9960669 0.00374639 0.9989386 0.002521574 0.9987946 0.00237596 0.9975786 0.00374639 0.9989386 0.003777146 1.001792 0.002642214 1.001792 0.00237596 0.9975786 -4.75827e-4 0.9975391 -4.75829e-4 0.9960669 0.00237596 0.9975786 0.002521574 0.9987946 -4.75828e-4 0.998674 0.002521574 0.9987946 0.002642214 1.001792 0.001943886 1.001792 0.3760592 0.751429 0.3760443 0.7510476 0.3764289 0.7510592 0.3757143 0.7514289 0.3757121 0.7510537 0.3760443 0.7510476 0.3742855 0.7507145 0.3744689 0.7505303 0.3757121 0.7510537 0.3760443 0.7510476 0.3760516 0.7507117 0.3764289 0.7507144 0.3757121 0.7510537 0.3757479 0.7507482 0.3760516 0.7507117 0.3757121 0.7510537 0.3744689 0.7505303 0.374611 0.7503892 0.3760516 0.7507117 0.3760614 0.75 0.3764289 0.7500001 0.3760516 0.7507117 0.3757479 0.7507482 0.3757782 0.75 0.3757479 0.7507482 0.374611 0.7503892 0.375 0.75 0.6235711 0.2510592 0.6239525 0.2510445 0.6239408 0.2514289 0.6235711 0.2507143 0.6239463 0.2507122 0.6239525 0.2510445 0.6235712 0.25 0.6239386 0.25 0.6239463 0.2507122 0.6239525 0.2510445 0.6242883 0.2510516 0.6242857 0.2514289 0.6239463 0.2507122 0.6242517 0.2507479 0.6242883 0.2510516 0.6239463 0.2507122 0.6239386 0.25 0.6242218 0.25 0.6242883 0.2510516 0.625 0.2510614 0.6250001 0.2514289 0.6242883 0.2510516 0.6242517 0.2507479 0.625 0.2507782 0.6242517 0.2507479 0.6242218 0.25 0.6243961 0.25 1.001046 0.9886779 1.001105 0.9902023 0.9995684 0.9901558 1.002425 0.988678 1.002433 0.9901775 1.001105 0.9902023 1.00528 0.988678 1.00528 0.9901468 1.002433 0.9901775 1.001105 0.9902023 1.001076 0.9915446 0.9995682 0.9915343 1.002433 0.9901775 1.00229 0.9913986 1.001076 0.9915446 1.002433 0.9901775 1.00528 0.9901468 1.00528 0.9912789 1.001076 0.9915446 1.001037 0.9943897 0.9995685 0.9943898 1.001076 0.9915446 1.00229 0.9913986 1.002169 0.9943897 1.00229 0.9913986 1.00528 0.9912789 1.00528 0.9919756 0.8735712 0.5010591 0.8739525 0.5010444 0.8739408 0.5014288 0.8735712 0.5007144 0.8739462 0.5007122 0.8739525 0.5010444 0.8735711 0.5 0.8739386 0.5 0.8739462 0.5007122 0.8739525 0.5010444 0.8742883 0.5010516 0.8742857 0.5014289 0.8739462 0.5007122 0.8742518 0.5007479 0.8742883 0.5010516 0.8739462 0.5007122 0.8739386 0.5 0.8742218 0.5 0.8742883 0.5010516 0.875 0.5010614 0.8750001 0.5014289 0.8742883 0.5010516 0.8742518 0.5007479 0.8750001 0.5007782 0.8742518 0.5007479 0.8742218 0.5 0.8743961 0.5 0.3760592 0.2514289 0.3760443 0.2510476 0.3764289 0.2510592 0.3757143 0.2514289 0.3757121 0.2510538 0.3760443 0.2510476 0.375 0.2514289 0.375 0.2510614 0.3757121 0.2510538 0.3760443 0.2510476 0.3760516 0.2507117 0.3764289 0.2507143 0.3757121 0.2510538 0.3757479 0.2507482 0.3760516 0.2507117 0.3757121 0.2510538 0.375 0.2510614 0.375 0.2507782 0.3760516 0.2507117 0.3760614 0.25 0.3764289 0.25 0.3760516 0.2507117 0.3757479 0.2507482 0.3757782 0.25 0.3757479 0.2507482 0.375 0.2507782 0.375 0.2506039 0.1260592 0.5014289 0.1260443 0.5010476 0.1264289 0.5010592 0.1257143 0.5014289 0.1257121 0.5010538 0.1260443 0.5010476 0.125 0.5014289 0.125 0.5010614 0.1257121 0.5010538 0.1260443 0.5010476 0.1260516 0.5007118 0.1264289 0.5007144 0.1257121 0.5010538 0.1257479 0.5007482 0.1260516 0.5007118 0.1257121 0.5010538 0.125 0.5010614 0.125 0.5007782 0.1260516 0.5007118 0.1260614 0.5 0.1264289 0.5 0.1260516 0.5007118 0.1257479 0.5007482 0.1257781 0.5 0.1257479 0.5007482 0.125 0.5007782 0.125 0.5006039 0.01165992 0.9901558 0.01013565 0.9902148 0.01018214 0.9886779 0.01165992 0.9915343 0.01016056 0.9915431 0.01013565 0.9902148 0.01165992 0.9943897 0.0101912 0.9943896 0.01016056 0.9915431 0.01013565 0.9902148 0.008793354 0.990186 0.008803665 0.988678 0.01016056 0.9915431 0.00893861 0.9913994 0.008793354 0.990186 0.01016056 0.9915431 0.0101912 0.9943896 0.009058952 0.9943896 0.008793354 0.990186 0.005948245 0.9901466 0.005948245 0.988678 0.008793354 0.990186 0.00893861 0.9913994 0.005948245 0.9912788 0.00893861 0.9913994 0.009058952 0.9943896 0.008362293 0.9943897 0.9995684 -7.01892e-4 1.001006 -6.79853e-4 1.00104 7.69538e-4 0.9995685 -0.00207448 1.00099 -0.002003312 1.001006 -6.79853e-4 0.9995683 -0.004942059 1.000978 -0.004942059 1.00099 -0.002003312 1.001006 -6.79853e-4 1.002329 -6.53644e-4 1.002412 7.69538e-4 1.00099 -0.002003312 1.002232 -0.001894354 1.002329 -6.53644e-4 1.00099 -0.002003312 1.000978 -0.004942059 1.002153 -0.004942059 1.002329 -6.53644e-4 1.00528 -6.39736e-4 1.00528 7.69568e-4 1.002329 -6.53644e-4 1.002232 -0.001894354 1.00528 -0.001815378 1.002232 -0.001894354 1.002153 -0.004942059 1.002891 -0.004942059 0.6239392 0.9985712 0.6239339 0.9989308 0.6235711 0.9989391 0.6242826 0.9985712 0.6242648 0.9989268 0.6239339 0.9989308 0.625 0.9985712 0.6250001 0.9989237 0.6242648 0.9989268 0.6239339 0.9989308 0.6239272 0.9992618 0.6235712 0.9992827 0.6242648 0.9989268 0.6242377 0.9992375 0.6239272 0.9992618 0.6242648 0.9989268 0.6250001 0.9989237 0.625 0.9992178 0.6239272 0.9992618 0.6239237 1 0.6235712 1 0.6239272 0.9992618 0.6242377 0.9992375 0.6242177 1 0.6242377 0.9992375 0.625 0.9992178 0.625 0.9994025 0.8739393 0.7485712 0.8739337 0.7489308 0.8735712 0.7489392 0.8742827 0.7485711 0.874265 0.7489269 0.8739337 0.7489308 0.8750001 0.748571 0.875 0.7489237 0.874265 0.7489269 0.8739337 0.7489308 0.8739271 0.7492617 0.8735712 0.7492826 0.874265 0.7489269 0.8742379 0.7492374 0.8739271 0.7492617 0.874265 0.7489269 0.875 0.7489237 0.875 0.7492178 0.8739271 0.7492617 0.8739238 0.7500001 0.8735711 0.75 0.8739271 0.7492617 0.8742379 0.7492374 0.8742178 0.75 0.8742379 0.7492374 0.875 0.7492178 0.875 0.7494025 0.1264289 0.7489409 0.1260475 0.7489556 0.1260591 0.7485712 0.1264289 0.7492857 0.1260538 0.7492879 0.1260475 0.7489556 0.1264289 0.75 0.1260614 0.7500001 0.1260538 0.7492879 0.1260475 0.7489556 0.1257117 0.7489483 0.1257143 0.7485711 0.1260538 0.7492879 0.1257482 0.749252 0.1257117 0.7489483 0.1260538 0.7492879 0.1260614 0.7500001 0.1257781 0.75 0.1257117 0.7489483 0.125 0.7489386 0.125 0.7485711 0.1257117 0.7489483 0.1257482 0.749252 0.125 0.7492219 0.1257482 0.749252 0.1257781 0.75 0.1256039 0.75 0.3764289 0.9989409 0.3760476 0.9989557 0.3760592 0.998571 0.3764289 0.9992856 0.3760538 0.9992879 0.3760476 0.9989557 0.3764289 1 0.3760614 1 0.3760538 0.9992879 0.3760476 0.9989557 0.3757117 0.9989483 0.3757144 0.9985712 0.3760538 0.9992879 0.3757482 0.999252 0.3757117 0.9989483 0.3760538 0.9992879 0.3760614 1 0.3757781 1 0.3757117 0.9989483 0.375 0.9989385 0.375 0.9985712 0.3757117 0.9989483 0.3757482 0.999252 0.375 0.9992218 0.3757482 0.999252 0.3757781 1 0.3756039 1 0.01018214 7.69568e-4 0.01012313 -7.54696e-4 0.01165992 -7.08205e-4 0.008803665 7.69568e-4 0.008794903 -7.29827e-4 0.01012313 -7.54696e-4 0.005948245 7.69568e-4 0.005948245 -6.99181e-4 0.008794903 -7.29827e-4 0.01012313 -7.54696e-4 0.01015192 -0.00209701 0.01165992 -0.002086699 0.008794903 -7.29827e-4 0.008937954 -0.001951038 0.01015192 -0.00209701 0.008794903 -7.29827e-4 0.005948245 -6.99181e-4 0.005948245 -0.001831352 0.01015192 -0.00209701 0.0101912 -0.004942059 0.01165992 -0.004942059 0.01015192 -0.00209701 0.008937954 -0.001951038 0.009058952 -0.004942059 0.008937954 -0.001951038 0.005948245 -0.001831352 0.005948245 -0.002528011 0.6264289 0.7485712 0.6260591 0.7485712 0.6260591 0.5014289 0.6260591 0.7485712 0.6257143 0.7485711 0.6257144 0.5014289 0.6257143 0.7485711 0.6250001 0.7485711 0.625 0.5014289 1.001227 0.9960669 0.9983646 0.9960667 0.9983646 0.005814552 0.9983646 0.9960667 0.9969828 0.9960668 0.9969831 0.005814552 0.9969828 0.9960668 0.9955017 0.9960668 0.9955016 0.005814492 0.6235712 0.2514289 0.6239408 0.2514289 0.6239408 0.4985712 0.6239408 0.2514289 0.6242857 0.2514289 0.6242857 0.4985711 0.6242857 0.2514289 0.6250001 0.2514289 0.6257145 0.4992856 0.8735711 0.5 0.8735712 0.5007144 0.6264289 0.5007143 0.8735712 0.5007144 0.8735712 0.5010591 0.6264289 0.5010592 0.8735712 0.5010591 0.8735711 0.5014289 0.6264289 0.5014289 0.9995684 7.69536e-4 1.00104 7.69538e-4 1.001046 0.9886779 1.00104 7.69538e-4 1.002412 7.69538e-4 1.002425 0.988678 1.002412 7.69538e-4 1.00528 7.69568e-4 1.00528 0.988678 0.8750001 0.748571 0.8742827 0.7485711 0.8742857 0.5014289 0.8742827 0.7485711 0.8739393 0.7485712 0.8739408 0.5014288 0.8739408 0.5014288 0.8739393 0.7485712 0.8735713 0.7485712 0.8735713 0.7485712 0.8735712 0.7489392 0.6264289 0.7489408 0.8735712 0.7489392 0.8735712 0.7492826 0.6264289 0.7492858 0.8735712 0.7492826 0.8735711 0.75 0.6257144 0.7507144 0.625 0.9985712 0.6242826 0.9985712 0.6242858 0.7514289 0.6242826 0.9985712 0.6239392 0.9985712 0.6239408 0.751429 0.6239408 0.751429 0.6239392 0.9985712 0.6235712 0.9985712 0.3764289 0.9985712 0.3760592 0.998571 0.3760592 0.751429 0.3760592 0.998571 0.3757144 0.9985712 0.3757143 0.7514289 0.3757144 0.9985712 0.375 0.9985712 0.3742855 0.7507145 0.1264289 0.75 0.1264289 0.7492857 0.3735711 0.7492858 0.1264289 0.7492857 0.1264289 0.7489409 0.3735711 0.7489408 0.1264289 0.7489409 0.1264289 0.7485712 0.3735711 0.7485712 0.3764289 0.7514289 0.3764289 0.7510592 0.6235711 0.7510592 0.3764289 0.7510592 0.3764289 0.7507144 0.6235711 0.7507143 0.3764289 0.7507144 0.3764289 0.7500001 0.6235712 0.75 0.005249381 1.001792 0.005249381 0.9989299 0.9955016 0.99893 0.005249381 0.9989299 0.005249381 0.9975481 0.9955015 0.9975481 0.005249381 0.9975481 0.005249321 0.9960669 0.9955017 0.9960668 0.9995684 7.69536e-4 0.01165992 7.69538e-4 0.01165992 -7.08205e-4 0.01165992 -7.08205e-4 0.01165992 -0.002086699 0.9995685 -0.00207448 0.01165992 -0.002086699 0.01165992 -0.004942059 0.9995683 -0.004942059 0.3764289 1 0.3764289 0.9992856 0.6235712 0.9992827 0.3764289 0.9992856 0.3764289 0.9989409 0.6235711 0.9989391 0.3764289 0.9989409 0.3764289 0.9985712 0.6235712 0.9985712 0.3764289 0.2514289 0.3764289 0.2510592 0.6235711 0.2510592 0.3764289 0.2510592 0.3764289 0.2507143 0.6235711 0.2507143 0.3764289 0.2507143 0.3764289 0.25 0.6235712 0.25 0.01165992 0.9943897 0.01165992 0.9915343 0.9995682 0.9915343 0.01165992 0.9915343 0.01165992 0.9901558 0.9995684 0.9901558 0.01165992 0.9901558 0.01165992 0.988678 0.9995684 0.9886779 0.1264289 0.7485712 0.1260591 0.7485712 0.1260592 0.5014289 0.1260591 0.7485712 0.1257143 0.7485711 0.1257143 0.5014289 0.1257143 0.7485711 0.125 0.7485711 0.125 0.5014289 0.005948245 7.69568e-4 0.008803665 7.69568e-4 0.008803665 0.988678 0.008803665 7.69568e-4 0.01018214 7.69568e-4 0.01018214 0.9886779 0.01018214 7.69568e-4 0.01165992 7.69538e-4 0.01165992 0.988678 0.1264289 0.5014289 0.1264289 0.5010592 0.3735711 0.5010591 0.1264289 0.5010592 0.1264289 0.5007144 0.3735711 0.5007144 0.1264289 0.5007144 0.1264289 0.5 0.3742855 0.4992856 0.375 0.2514289 0.3757143 0.2514289 0.3757144 0.4985711 0.3757143 0.2514289 0.3760592 0.2514289 0.3760592 0.4985711 0.3760592 0.2514289 0.3764289 0.2514289 0.3764289 0.4985712 0.005249321 0.9960669 0.003768086 0.9960669 0.003768086 0.005814552 0.003768086 0.9960669 0.002386331 0.9960669 0.002386331 0.005814552 0.002386331 0.9960669 -4.75829e-4 0.9960669 -4.75829e-4 0.005814552 0.375 0.748571 0.3742856 0.7485711 0.3742856 0.5014289 0.3742856 0.7485711 0.3739408 0.7485712 0.3739408 0.5014289 0.3739408 0.7485712 0.3735711 0.7485712 0.3735711 0.5014289 0.005249321 0.005814492 0.005249381 0.004333257 0.9955016 0.004333257 0.005249381 0.004333257 0.005249381 0.002951443 0.9955016 0.002951443 0.005249381 0.002951443 0.005249381 8.93385e-5 0.9955015 8.93385e-5 0.3764289 0.5 0.3764289 0.4992856 0.6235712 0.4992856 0.3764289 0.4992856 0.3764289 0.4989408 0.6235711 0.4989408 0.3764289 0.4989408 0.3764289 0.4985712 0.6235711 0.4985712 0.1426244 0.1431897 0.005249321 0.005814492 0.9955016 0.005814492 0.9955017 0.9960668 0.005249321 0.9960669 0.1426246 0.8586916 0.9955017 0.9960668 0.1426246 0.8586916 0.8581266 0.8586916 0.8581266 0.1431896 0.1426244 0.1431897 0.9955016 0.005814492 0.9955017 0.9960668 0.8581266 0.8586916 0.8581266 0.1431896 0.8735711 0.5014289 0.8735713 0.7485712 0.6264289 0.7485712 0.6235712 0.2514289 0.6235711 0.4985712 0.3764289 0.4985712 0.3735711 0.5014289 0.3735711 0.7485712 0.1264289 0.7485712 0.005249321 0.9960669 0.005249321 0.005814492 0.1426244 0.1431897 0.6235712 0.7514289 0.6235712 0.9985712 0.3764289 0.9985712 0.8625184 0.851628 0.8625184 0.1378195 0.9995684 7.69536e-4 0.9995684 0.9886779 0.01165992 0.988678 0.14871 0.851628 0.8625184 0.851628 0.9995684 7.69536e-4 0.9995684 0.9886779 0.1487099 0.1378195 0.14871 0.851628 0.01165992 0.988678 0.01165992 7.69538e-4 0.9995684 7.69536e-4 0.8625184 0.1378195 0.1487099 0.1378195 0.01165992 0.988678 0.01165992 7.69538e-4</float_array>
          <technique_common>
            <accessor source="#Cube-mesh-map-0-array" count="1824" stride="2">
              <param name="S" type="float"/>
              <param name="T" type="float"/>
            </accessor>
          </technique_common>
        </source>
        <vertices id="Cube-mesh-vertices">
          <input semantic="POSITION" source="#Cube-mesh-positions"/>
        </vertices>
        <triangles material="Material-material" count="208">
          <input semantic="VERTEX" source="#Cube-mesh-vertices" offset="0"/>
          <input semantic="NORMAL" source="#Cube-mesh-normals" offset="1"/>
          <input semantic="TEXCOORD" source="#Cube-mesh-map-0" offset="2" set="0"/>
          <p>11 4 12 14 4 13 8 4 14 12 5 15 15 5 16 11 5 17 13 6 18 16 6 19 12 6 20 15 7 21 18 7 22 14 7 23 16 8 24 19 8 25 15 8 26 16 9 27 21 9 28 20 9 29 19 10 30 36 10 31 18 10 32 19 11 33 44 11 34 40 11 35 20 12 36 22 12 37 44 12 38 60 40 120 63 40 121 46 40 122 61 41 123 64 41 124 60 41 125 62 42 126 65 42 127 61 42 128 64 43 129 67 43 130 63 43 131 65 44 132 68 44 133 64 44 134 65 45 135 70 45 136 69 45 137 68 46 138 50 46 139 67 46 140 68 47 141 58 47 142 54 47 143 69 48 144 59 48 145 58 48 146 85 58 174 88 58 175 82 58 176 86 59 177 89 59 178 85 59 179 87 60 180 90 60 181 86 60 182 89 61 183 92 61 184 88 61 185 90 62 186 93 62 187 89 62 188 90 63 189 95 63 190 94 63 191 93 64 192 110 64 193 92 64 194 93 65 195 118 65 196 114 65 197 94 66 198 96 66 199 118 66 200 134 94 282 137 94 283 120 94 284 135 95 285 138 95 286 134 95 287 136 96 288 139 96 289 135 96 290 138 97 291 141 97 292 137 97 293 139 98 294 142 98 295 138 98 296 139 99 297 144 99 298 143 99 299 142 100 300 124 100 301 141 100 302 142 101 303 132 101 304 128 101 305 143 102 306 133 102 307 132 102 308 171 121 363 174 121 364 157 121 365 172 122 366 175 122 367 171 122 368 173 123 369 176 123 370 172 123 371 175 124 372 178 124 373 174 124 374 176 125 375 179 125 376 175 125 377 176 126 378 181 126 379 180 126 380 179 127 381 161 127 382 178 127 383 179 128 384 169 128 385 165 128 386 180 129 387 170 129 388 169 129 389 219 157 471 222 157 472 195 157 473 220 158 474 223 158 475 219 158 476 221 159 477 224 159 478 220 159 479 223 160 480 226 160 481 222 160 482 224 161 483 227 161 484 223 161 485 224 162 486 229 162 487 228 162 488 227 163 489 210 163 490 226 163 491 227 164 492 218 164 493 214 164 494 228 165 495 207 165 496 218 165 497 233 166 498 236 166 499 230 166 500 234 167 501 237 167 502 233 167 503 235 168 504 238 168 505 234 168 506 237 169 507 240 169 508 236 169 509 238 170 510 241 170 511 237 170 512 238 171 513 243 171 514 242 171 515 241 172 516 258 172 517 240 172 518 241 173 519 266 173 520 262 173 521 242 174 522 244 174 523 266 174 524 293 211 633 296 211 634 269 211 635 294 212 636 297 212 637 293 212 638 295 213 639 298 213 640 294 213 641 297 214 642 300 214 643 296 214 644 298 215 645 301 215 646 297 215 647 298 216 648 303 216 649 302 216 650 301 217 651 284 217 652 300 217 653 301 218 654 292 218 655 288 218 656 302 219 657 281 219 658 292 219 659 87 223 669 18 223 670 36 223 671 86 224 672 14 224 673 18 224 674 85 225 675 8 225 676 14 225 677 230 232 696 171 232 697 157 232 698 236 233 699 172 233 700 171 233 701 240 234 702 173 234 703 172 234 704 136 253 759 92 253 760 110 253 761 135 254 762 88 254 763 92 254 764 134 255 765 82 255 766 88 255 767 230 256 768 296 256 769 233 256 770 296 257 771 234 257 772 233 257 773 300 258 774 235 258 775 234 258 776 221 265 795 178 265 796 161 265 797 220 266 798 174 266 799 178 266 800 219 267 801 157 267 802 174 267 803 295 271 813 226 271 814 210 271 815 294 272 816 222 272 817 226 272 818 293 273 819 195 273 820 222 273 821 120 280 840 60 280 841 46 280 842 137 281 843 61 281 844 60 281 845 141 282 846 62 282 847 61 282 848 46 286 858 11 286 859 8 286 860 63 287 861 12 287 862 11 287 863 67 288 864 13 288 865 12 288 866 8 292 876 82 292 877 6 292 878 120 296 888 4 296 889 7 296 890 157 298 894 3 298 895 1 298 896 269 299 897 2 299 898 0 299 899 11 304 912 15 304 913 14 304 914 12 305 915 16 305 916 15 305 917 13 306 918 17 306 919 16 306 920 15 307 921 19 307 922 18 307 923 16 308 924 20 308 925 19 308 926 16 309 927 17 309 928 21 309 929 19 310 930 40 310 931 36 310 932 19 311 933 20 311 934 44 311 935 20 312 936 21 312 937 22 312 938 60 340 1020 64 340 1021 63 340 1022 61 341 1023 65 341 1024 64 341 1025 62 342 1026 66 342 1027 65 342 1028 64 343 1029 68 343 1030 67 343 1031 65 344 1032 69 344 1033 68 344 1034 65 345 1035 66 345 1036 70 345 1037 68 346 1038 54 346 1039 50 346 1040 68 347 1041 69 347 1042 58 347 1043 69 348 1044 70 348 1045 59 348 1046 85 358 1074 89 358 1075 88 358 1076 86 359 1077 90 359 1078 89 359 1079 87 360 1080 91 360 1081 90 360 1082 89 361 1083 93 361 1084 92 361 1085 90 362 1086 94 362 1087 93 362 1088 90 363 1089 91 363 1090 95 363 1091 93 364 1092 114 364 1093 110 364 1094 93 365 1095 94 365 1096 118 365 1097 94 366 1098 95 366 1099 96 366 1100 134 394 1182 138 394 1183 137 394 1184 135 395 1185 139 395 1186 138 395 1187 136 396 1188 140 396 1189 139 396 1190 138 397 1191 142 397 1192 141 397 1193 139 398 1194 143 398 1195 142 398 1196 139 399 1197 140 399 1198 144 399 1199 142 400 1200 128 400 1201 124 400 1202 142 401 1203 143 401 1204 132 401 1205 143 402 1206 144 402 1207 133 402 1208 171 421 1263 175 421 1264 174 421 1265 172 422 1266 176 422 1267 175 422 1268 173 423 1269 177 423 1270 176 423 1271 175 424 1272 179 424 1273 178 424 1274 176 425 1275 180 425 1276 179 425 1277 176 426 1278 177 426 1279 181 426 1280 179 427 1281 165 427 1282 161 427 1283 179 428 1284 180 428 1285 169 428 1286 180 429 1287 181 429 1288 170 429 1289 219 457 1371 223 457 1372 222 457 1373 220 458 1374 224 458 1375 223 458 1376 221 459 1377 225 459 1378 224 459 1379 223 460 1380 227 460 1381 226 460 1382 224 461 1383 228 461 1384 227 461 1385 224 462 1386 225 462 1387 229 462 1388 227 463 1389 214 463 1390 210 463 1391 227 464 1392 228 464 1393 218 464 1394 228 465 1395 229 465 1396 207 465 1397 233 466 1398 237 466 1399 236 466 1400 234 467 1401 238 467 1402 237 467 1403 235 468 1404 239 468 1405 238 468 1406 237 469 1407 241 469 1408 240 469 1409 238 470 1410 242 470 1411 241 470 1412 238 471 1413 239 471 1414 243 471 1415 241 472 1416 262 472 1417 258 472 1418 241 473 1419 242 473 1420 266 473 1421 242 474 1422 243 474 1423 244 474 1424 293 511 1533 297 511 1534 296 511 1535 294 512 1536 298 512 1537 297 512 1538 295 513 1539 299 513 1540 298 513 1541 297 514 1542 301 514 1543 300 514 1544 298 515 1545 302 515 1546 301 515 1547 298 516 1548 299 516 1549 303 516 1550 301 517 1551 288 517 1552 284 517 1553 301 518 1554 302 518 1555 292 518 1556 302 519 1557 303 519 1558 281 519 1559 87 523 1569 86 523 1570 18 523 1571 86 524 1572 85 524 1573 14 524 1574 85 525 1575 82 525 1576 8 525 1577 230 532 1596 236 532 1597 171 532 1598 236 533 1599 240 533 1600 172 533 1601 240 534 1602 258 534 1603 173 534 1604 136 553 1659 135 553 1660 92 553 1661 135 554 1662 134 554 1663 88 554 1664 134 555 1665 120 555 1666 82 555 1667 230 556 1668 269 556 1669 296 556 1670 296 557 1671 300 557 1672 234 557 1673 300 558 1674 284 558 1675 235 558 1676 221 565 1695 220 565 1696 178 565 1697 220 566 1698 219 566 1699 174 566 1700 219 567 1701 195 567 1702 157 567 1703 295 571 1713 294 571 1714 226 571 1715 294 572 1716 293 572 1717 222 572 1718 293 573 1719 269 573 1720 195 573 1721 120 580 1740 137 580 1741 60 580 1742 137 581 1743 141 581 1744 61 581 1745 141 582 1746 124 582 1747 62 582 1748 46 586 1758 63 586 1759 11 586 1760 63 587 1761 67 587 1762 12 587 1763 67 588 1764 50 588 1765 13 588 1766 4 592 1776 46 592 1777 8 592 1778 82 593 1779 120 593 1780 7 593 1781 82 594 1782 7 594 1783 5 594 1784 6 595 1785 4 595 1786 8 595 1787 82 596 1788 5 596 1789 6 596 1790 120 600 1800 46 600 1801 4 600 1802 1 602 1806 2 602 1807 230 602 1808 157 603 1809 195 603 1810 3 603 1811 1 604 1812 230 604 1813 157 604 1814 0 605 1815 3 605 1816 195 605 1817 269 606 1818 230 606 1819 2 606 1820 0 607 1821 195 607 1822 269 607 1823</p>
        </triangles>
        <triangles material="Material_001-material" count="400">
          <input semantic="VERTEX" source="#Cube-mesh-vertices" offset="0"/>
          <input semantic="NORMAL" source="#Cube-mesh-normals" offset="1"/>
          <input semantic="TEXCOORD" source="#Cube-mesh-map-0" offset="2" set="0"/>
          <p>3 0 0 6 0 1 1 0 2 0 1 3 5 1 4 7 1 5 0 2 6 4 2 7 3 2 8 6 3 9 2 3 10 1 3 11 23 13 39 26 13 40 9 13 41 24 14 42 27 14 43 23 14 44 25 15 45 28 15 46 24 15 47 27 16 48 30 16 49 26 16 50 28 17 51 31 17 52 27 17 53 28 18 54 33 18 55 32 18 56 31 19 57 13 19 58 30 19 59 31 20 60 21 20 61 17 20 62 32 21 63 22 21 64 21 21 65 34 22 66 37 22 67 10 22 68 35 23 69 38 23 70 34 23 71 36 24 72 39 24 73 35 24 74 38 25 75 41 25 76 37 25 77 39 26 78 42 26 79 38 26 80 39 27 81 44 27 82 43 27 83 42 28 84 25 28 85 41 28 86 42 29 87 33 29 88 29 29 89 43 30 90 22 30 91 33 30 92 48 31 93 51 31 94 45 31 95 49 32 96 52 32 97 48 32 98 50 33 99 53 33 100 49 33 101 52 34 102 55 34 103 51 34 104 53 35 105 56 35 106 52 35 107 53 36 108 58 36 109 57 36 110 56 37 111 73 37 112 55 37 113 56 38 114 81 38 115 77 38 116 57 39 117 59 39 118 81 39 119 71 49 147 74 49 148 47 49 149 72 50 150 75 50 151 71 50 152 73 51 153 76 51 154 72 51 155 75 52 156 78 52 157 74 52 158 76 53 159 79 53 160 75 53 161 76 54 162 81 54 163 80 54 164 79 55 165 62 55 166 78 55 167 79 56 168 70 56 169 66 56 170 80 57 171 59 57 172 70 57 173 97 67 201 100 67 202 83 67 203 98 68 204 101 68 205 97 68 206 99 69 207 102 69 208 98 69 209 101 70 210 104 70 211 100 70 212 102 71 213 105 71 214 101 71 215 102 72 216 107 72 217 106 72 218 105 73 219 87 73 220 104 73 221 105 74 222 95 74 223 91 74 224 106 75 225 96 75 226 95 75 227 108 76 228 111 76 229 84 76 230 109 77 231 112 77 232 108 77 233 110 78 234 113 78 235 109 78 236 112 79 237 115 79 238 111 79 239 113 80 240 116 80 241 112 80 242 113 81 243 118 81 244 117 81 245 116 82 246 99 82 247 115 82 248 116 83 249 107 83 250 103 83 251 117 84 252 96 84 253 107 84 254 122 85 255 125 85 256 119 85 257 123 86 258 126 86 259 122 86 260 124 87 261 127 87 262 123 87 263 126 88 264 129 88 265 125 88 266 127 89 267 130 89 268 126 89 269 127 90 270 132 90 271 131 90 272 130 91 273 147 91 274 129 91 275 130 92 276 155 92 277 151 92 278 131 93 279 133 93 280 155 93 281 145 103 309 148 103 310 121 103 311 146 104 312 149 104 313 145 104 314 147 105 315 150 105 316 146 105 317 149 106 318 152 106 319 148 106 320 150 107 321 153 107 322 149 107 323 150 108 324 155 108 325 154 108 326 153 109 327 136 109 328 152 109 329 153 110 330 144 110 331 140 110 332 154 111 333 133 111 334 144 111 335 159 112 336 162 112 337 156 112 338 160 113 339 163 113 340 159 113 341 161 114 342 164 114 343 160 114 344 163 115 345 166 115 346 162 115 347 164 116 348 167 116 349 163 116 350 164 117 351 169 117 352 168 117 353 167 118 354 184 118 355 166 118 356 167 119 357 192 119 358 188 119 359 168 120 360 170 120 361 192 120 362 182 130 390 185 130 391 158 130 392 183 131 393 186 131 394 182 131 395 184 132 396 187 132 397 183 132 398 186 133 399 189 133 400 185 133 401 187 134 402 190 134 403 186 134 404 187 135 405 192 135 406 191 135 407 190 136 408 173 136 409 189 136 410 190 137 411 181 137 412 177 137 413 191 138 414 170 138 415 181 138 416 196 139 417 199 139 418 193 139 419 197 140 420 200 140 421 196 140 422 198 141 423 201 141 424 197 141 425 200 142 426 203 142 427 199 142 428 201 143 429 204 143 430 200 143 431 201 144 432 206 144 433 205 144 434 204 145 435 221 145 436 203 145 437 204 146 438 229 146 439 225 146 440 205 147 441 207 147 442 229 147 443 208 148 444 211 148 445 194 148 446 209 149 447 212 149 448 208 149 449 210 150 450 213 150 451 209 150 452 212 151 453 215 151 454 211 151 455 213 152 456 216 152 457 212 152 458 213 153 459 218 153 460 217 153 461 216 154 462 198 154 463 215 154 464 216 155 465 206 155 466 202 155 467 217 156 468 207 156 469 206 156 470 245 175 525 248 175 526 231 175 527 246 176 528 249 176 529 245 176 530 247 177 531 250 177 532 246 177 533 249 178 534 252 178 535 248 178 536 250 179 537 253 179 538 249 179 539 250 180 540 255 180 541 254 180 542 253 181 543 235 181 544 252 181 545 253 182 546 243 182 547 239 182 548 254 183 549 244 183 550 243 183 551 256 184 552 259 184 553 232 184 554 257 185 555 260 185 556 256 185 557 258 186 558 261 186 559 257 186 560 260 187 561 263 187 562 259 187 563 261 188 564 264 188 565 260 188 566 261 189 567 266 189 568 265 189 569 264 190 570 247 190 571 263 190 572 264 191 573 255 191 574 251 191 575 265 192 576 244 192 577 255 192 578 270 193 579 273 193 580 267 193 581 271 194 582 274 194 583 270 194 584 272 195 585 275 195 586 271 195 587 274 196 588 277 196 589 273 196 590 275 197 591 278 197 592 274 197 593 275 198 594 280 198 595 279 198 596 278 199 597 295 199 598 277 199 599 278 200 600 303 200 601 299 200 602 279 201 603 281 201 604 303 201 605 282 202 606 285 202 607 268 202 608 283 203 609 286 203 610 282 203 611 284 204 612 287 204 613 283 204 614 286 205 615 289 205 616 285 205 617 287 206 618 290 206 619 286 206 620 287 207 621 292 207 622 291 207 623 290 208 624 272 208 625 289 208 626 290 209 627 280 209 628 276 209 629 291 210 630 281 210 631 280 210 632 83 220 660 34 220 661 10 220 662 100 221 663 35 221 664 34 221 665 104 222 666 36 222 667 35 222 668 156 226 678 23 226 679 9 226 680 162 227 681 24 227 682 23 227 683 166 228 684 25 228 685 24 228 686 184 229 687 41 229 688 25 229 689 183 230 690 37 230 691 41 230 692 182 231 693 10 231 694 37 231 695 258 235 705 189 235 706 173 235 707 257 236 708 185 236 709 189 236 710 185 237 711 232 237 712 158 237 713 232 238 714 97 238 715 83 238 716 259 239 717 98 239 718 97 239 719 263 240 720 99 240 721 98 240 722 247 241 723 115 241 724 99 241 725 246 242 726 111 242 727 115 242 728 111 243 729 231 243 730 84 243 731 268 244 732 145 244 733 121 244 734 285 245 735 146 245 736 145 245 737 289 246 738 147 246 739 146 246 740 272 247 741 129 247 742 147 247 743 271 248 744 125 248 745 129 248 746 270 249 747 119 249 748 125 249 749 121 250 750 108 250 751 84 250 752 148 251 753 109 251 754 108 251 755 152 252 756 110 252 757 109 252 758 284 259 777 252 259 778 235 259 779 283 260 780 248 260 781 252 260 782 282 261 783 231 261 784 248 261 785 193 262 786 159 262 787 156 262 788 199 263 789 160 263 790 159 263 791 203 264 792 161 264 793 160 264 794 267 268 804 208 268 805 194 268 806 273 269 807 209 269 808 208 269 809 277 270 810 210 270 811 209 270 812 194 274 822 71 274 823 47 274 824 211 275 825 72 275 826 71 275 827 215 276 828 73 276 829 72 276 830 198 277 831 55 277 832 73 277 833 197 278 834 51 278 835 55 278 836 196 279 837 45 279 838 51 279 839 124 283 849 78 283 850 62 283 851 123 284 852 74 284 853 78 284 854 122 285 855 47 285 856 74 285 857 50 289 867 30 289 868 13 289 869 49 290 870 26 290 871 30 290 872 48 291 873 9 291 874 26 291 875 158 293 879 83 293 880 10 293 881 156 294 882 45 294 883 193 294 884 47 295 885 267 295 886 194 295 887 84 297 891 268 297 892 121 297 893 3 300 900 4 300 901 6 300 902 0 301 903 2 301 904 5 301 905 0 302 906 7 302 907 4 302 908 6 303 909 5 303 910 2 303 911 23 313 939 27 313 940 26 313 941 24 314 942 28 314 943 27 314 944 25 315 945 29 315 946 28 315 947 27 316 948 31 316 949 30 316 950 28 317 951 32 317 952 31 317 953 28 318 954 29 318 955 33 318 956 31 319 957 17 319 958 13 319 959 31 320 960 32 320 961 21 320 962 32 321 963 33 321 964 22 321 965 34 322 966 38 322 967 37 322 968 35 323 969 39 323 970 38 323 971 36 324 972 40 324 973 39 324 974 38 325 975 42 325 976 41 325 977 39 326 978 43 326 979 42 326 980 39 327 981 40 327 982 44 327 983 42 328 984 29 328 985 25 328 986 42 329 987 43 329 988 33 329 989 43 330 990 44 330 991 22 330 992 48 331 993 52 331 994 51 331 995 49 332 996 53 332 997 52 332 998 50 333 999 54 333 1000 53 333 1001 52 334 1002 56 334 1003 55 334 1004 53 335 1005 57 335 1006 56 335 1007 53 336 1008 54 336 1009 58 336 1010 56 337 1011 77 337 1012 73 337 1013 56 338 1014 57 338 1015 81 338 1016 57 339 1017 58 339 1018 59 339 1019 71 349 1047 75 349 1048 74 349 1049 72 350 1050 76 350 1051 75 350 1052 73 351 1053 77 351 1054 76 351 1055 75 352 1056 79 352 1057 78 352 1058 76 353 1059 80 353 1060 79 353 1061 76 354 1062 77 354 1063 81 354 1064 79 355 1065 66 355 1066 62 355 1067 79 356 1068 80 356 1069 70 356 1070 80 357 1071 81 357 1072 59 357 1073 97 367 1101 101 367 1102 100 367 1103 98 368 1104 102 368 1105 101 368 1106 99 369 1107 103 369 1108 102 369 1109 101 370 1110 105 370 1111 104 370 1112 102 371 1113 106 371 1114 105 371 1115 102 372 1116 103 372 1117 107 372 1118 105 373 1119 91 373 1120 87 373 1121 105 374 1122 106 374 1123 95 374 1124 106 375 1125 107 375 1126 96 375 1127 108 376 1128 112 376 1129 111 376 1130 109 377 1131 113 377 1132 112 377 1133 110 378 1134 114 378 1135 113 378 1136 112 379 1137 116 379 1138 115 379 1139 113 380 1140 117 380 1141 116 380 1142 113 381 1143 114 381 1144 118 381 1145 116 382 1146 103 382 1147 99 382 1148 116 383 1149 117 383 1150 107 383 1151 117 384 1152 118 384 1153 96 384 1154 122 385 1155 126 385 1156 125 385 1157 123 386 1158 127 386 1159 126 386 1160 124 387 1161 128 387 1162 127 387 1163 126 388 1164 130 388 1165 129 388 1166 127 389 1167 131 389 1168 130 389 1169 127 390 1170 128 390 1171 132 390 1172 130 391 1173 151 391 1174 147 391 1175 130 392 1176 131 392 1177 155 392 1178 131 393 1179 132 393 1180 133 393 1181 145 403 1209 149 403 1210 148 403 1211 146 404 1212 150 404 1213 149 404 1214 147 405 1215 151 405 1216 150 405 1217 149 406 1218 153 406 1219 152 406 1220 150 407 1221 154 407 1222 153 407 1223 150 408 1224 151 408 1225 155 408 1226 153 409 1227 140 409 1228 136 409 1229 153 410 1230 154 410 1231 144 410 1232 154 411 1233 155 411 1234 133 411 1235 159 412 1236 163 412 1237 162 412 1238 160 413 1239 164 413 1240 163 413 1241 161 414 1242 165 414 1243 164 414 1244 163 415 1245 167 415 1246 166 415 1247 164 416 1248 168 416 1249 167 416 1250 164 417 1251 165 417 1252 169 417 1253 167 418 1254 188 418 1255 184 418 1256 167 419 1257 168 419 1258 192 419 1259 168 420 1260 169 420 1261 170 420 1262 182 430 1290 186 430 1291 185 430 1292 183 431 1293 187 431 1294 186 431 1295 184 432 1296 188 432 1297 187 432 1298 186 433 1299 190 433 1300 189 433 1301 187 434 1302 191 434 1303 190 434 1304 187 435 1305 188 435 1306 192 435 1307 190 436 1308 177 436 1309 173 436 1310 190 437 1311 191 437 1312 181 437 1313 191 438 1314 192 438 1315 170 438 1316 196 439 1317 200 439 1318 199 439 1319 197 440 1320 201 440 1321 200 440 1322 198 441 1323 202 441 1324 201 441 1325 200 442 1326 204 442 1327 203 442 1328 201 443 1329 205 443 1330 204 443 1331 201 444 1332 202 444 1333 206 444 1334 204 445 1335 225 445 1336 221 445 1337 204 446 1338 205 446 1339 229 446 1340 205 447 1341 206 447 1342 207 447 1343 208 448 1344 212 448 1345 211 448 1346 209 449 1347 213 449 1348 212 449 1349 210 450 1350 214 450 1351 213 450 1352 212 451 1353 216 451 1354 215 451 1355 213 452 1356 217 452 1357 216 452 1358 213 453 1359 214 453 1360 218 453 1361 216 454 1362 202 454 1363 198 454 1364 216 455 1365 217 455 1366 206 455 1367 217 456 1368 218 456 1369 207 456 1370 245 475 1425 249 475 1426 248 475 1427 246 476 1428 250 476 1429 249 476 1430 247 477 1431 251 477 1432 250 477 1433 249 478 1434 253 478 1435 252 478 1436 250 479 1437 254 479 1438 253 479 1439 250 480 1440 251 480 1441 255 480 1442 253 481 1443 239 481 1444 235 481 1445 253 482 1446 254 482 1447 243 482 1448 254 483 1449 255 483 1450 244 483 1451 256 484 1452 260 484 1453 259 484 1454 257 485 1455 261 485 1456 260 485 1457 258 486 1458 262 486 1459 261 486 1460 260 487 1461 264 487 1462 263 487 1463 261 488 1464 265 488 1465 264 488 1466 261 489 1467 262 489 1468 266 489 1469 264 490 1470 251 490 1471 247 490 1472 264 491 1473 265 491 1474 255 491 1475 265 492 1476 266 492 1477 244 492 1478 270 493 1479 274 493 1480 273 493 1481 271 494 1482 275 494 1483 274 494 1484 272 495 1485 276 495 1486 275 495 1487 274 496 1488 278 496 1489 277 496 1490 275 497 1491 279 497 1492 278 497 1493 275 498 1494 276 498 1495 280 498 1496 278 499 1497 299 499 1498 295 499 1499 278 500 1500 279 500 1501 303 500 1502 279 501 1503 280 501 1504 281 501 1505 282 502 1506 286 502 1507 285 502 1508 283 503 1509 287 503 1510 286 503 1511 284 504 1512 288 504 1513 287 504 1514 286 505 1515 290 505 1516 289 505 1517 287 506 1518 291 506 1519 290 506 1520 287 507 1521 288 507 1522 292 507 1523 290 508 1524 276 508 1525 272 508 1526 290 509 1527 291 509 1528 280 509 1529 291 510 1530 292 510 1531 281 510 1532 83 520 1560 100 520 1561 34 520 1562 100 521 1563 104 521 1564 35 521 1565 104 522 1566 87 522 1567 36 522 1568 156 526 1578 162 526 1579 23 526 1580 162 527 1581 166 527 1582 24 527 1583 166 528 1584 184 528 1585 25 528 1586 184 529 1587 183 529 1588 41 529 1589 183 530 1590 182 530 1591 37 530 1592 182 531 1593 158 531 1594 10 531 1595 258 535 1605 257 535 1606 189 535 1607 257 536 1608 256 536 1609 185 536 1610 185 537 1611 256 537 1612 232 537 1613 232 538 1614 259 538 1615 97 538 1616 259 539 1617 263 539 1618 98 539 1619 263 540 1620 247 540 1621 99 540 1622 247 541 1623 246 541 1624 115 541 1625 246 542 1626 245 542 1627 111 542 1628 111 543 1629 245 543 1630 231 543 1631 268 544 1632 285 544 1633 145 544 1634 285 545 1635 289 545 1636 146 545 1637 289 546 1638 272 546 1639 147 546 1640 272 547 1641 271 547 1642 129 547 1643 271 548 1644 270 548 1645 125 548 1646 270 549 1647 267 549 1648 119 549 1649 121 550 1650 148 550 1651 108 550 1652 148 551 1653 152 551 1654 109 551 1655 152 552 1656 136 552 1657 110 552 1658 284 559 1677 283 559 1678 252 559 1679 283 560 1680 282 560 1681 248 560 1682 282 561 1683 268 561 1684 231 561 1685 193 562 1686 199 562 1687 159 562 1688 199 563 1689 203 563 1690 160 563 1691 203 564 1692 221 564 1693 161 564 1694 267 568 1704 273 568 1705 208 568 1706 273 569 1707 277 569 1708 209 569 1709 277 570 1710 295 570 1711 210 570 1712 194 574 1722 211 574 1723 71 574 1724 211 575 1725 215 575 1726 72 575 1727 215 576 1728 198 576 1729 73 576 1730 198 577 1731 197 577 1732 55 577 1733 197 578 1734 196 578 1735 51 578 1736 196 579 1737 193 579 1738 45 579 1739 124 583 1749 123 583 1750 78 583 1751 123 584 1752 122 584 1753 74 584 1754 122 585 1755 119 585 1756 47 585 1757 50 589 1767 49 589 1768 30 589 1769 49 590 1770 48 590 1771 26 590 1772 48 591 1773 45 591 1774 9 591 1775 158 597 1791 232 597 1792 83 597 1793 156 598 1794 9 598 1795 45 598 1796 47 599 1797 119 599 1798 267 599 1799 84 601 1803 231 601 1804 268 601 1805</p>
        </triangles>
      </mesh>
    </geometry>
  </library_geometries>
  <library_visual_scenes>
    <visual_scene id="Scene" name="Scene">
      <node id="Cube" name="Cube" type="NODE">
        <matrix sid="transform">0.05 0 0 0 0 1.0668 0 0 0 0 1.0668 1.0668 0 0 0 1</matrix>
        <instance_geometry url="#Cube-mesh" name="Cube">
          <bind_material>
            <technique_common>
              <instance_material symbol="Material-material" target="#Material-material">
                <bind_vertex_input semantic="UVMap" input_semantic="TEXCOORD" input_set="0"/>
              </instance_material>
              <instance_material symbol="Material_001-material" target="#Material_001-material">
                <bind_vertex_input semantic="UVMap" input_semantic="TEXCOORD" input_set="0"/>
              </instance_material>
            </technique_common>
          </bind_material>
        </instance_geometry>
      </node>
    </visual_scene>
  </library_visual_scenes>
  <scene>
    <instance_visual_scene url="#Scene"/>
  </scene>
</COLLADA>